<svg
    xmlns="http://www.w3.org/2000/svg"
    viewBox="0 0 313 313"
    id="vector">
    <path
        id="path_4"
        d="M 157.2 53.3 C 153.9 53.3 151.2 50.6 151.2 47.3 L 151.2 5.9 C 151.2 2.6 153.9 -0.1 157.2 -0.1 C 160.5 -0.1 163.2 2.6 163.2 5.9 L 163.2 47.3 C 163.2 50.6 160.5 53.3 157.2 53.3 Z"
        fill="#ff9838"/>
    <path
        id="path_5"
        d="M 157.2 313.8 C 153.9 313.8 151.2 311.1 151.2 307.8 L 151.2 267.4 C 151.2 264.1 153.9 261.4 157.2 261.4 C 160.5 261.4 163.2 264.1 163.2 267.4 L 163.2 307.8 C 163.2 311.1 160.5 313.8 157.2 313.8 Z"
        fill="#ff9838"/>
    <path
        id="path_6"
        d="M 79.7 85.4 C 78.2 85.4 76.6 84.8 75.5 83.6 L 46.2 54.4 C 43.9 52.1 43.9 48.3 46.2 45.9 C 48.5 43.6 52.3 43.6 54.7 45.9 L 84 75.2 C 86.3 77.5 86.3 81.3 84 83.7 C 82.8 84.8 81.2 85.4 79.7 85.4 Z"
        fill="#ff9838"/>
    <path
        id="path_7"
        d="M 263.9 269.6 C 262.4 269.6 260.8 269 259.7 267.8 L 231.1 239.2 C 228.8 236.9 228.8 233.1 231.1 230.7 C 233.4 228.4 237.2 228.4 239.6 230.7 L 268.2 259.3 C 270.5 261.6 270.5 265.4 268.2 267.8 C 267 269 265.4 269.6 263.9 269.6 Z"
        fill="#ff9838"/>
    <path
        id="path_8"
        d="M 47.6 162.9 L 6.2 162.9 C 2.9 162.9 0.2 160.2 0.2 156.9 C 0.2 153.6 2.9 150.9 6.2 150.9 L 47.6 150.9 C 50.9 150.9 53.6 153.6 53.6 156.9 C 53.6 160.2 50.9 162.9 47.6 162.9 Z"
        fill="#ff9838"/>
    <path
        id="path_9"
        d="M 308.1 162.9 L 267.7 162.9 C 264.4 162.9 261.7 160.2 261.7 156.9 C 261.7 153.6 264.4 150.9 267.7 150.9 L 308.1 150.9 C 311.4 150.9 314.1 153.6 314.1 156.9 C 314.1 160.2 311.4 162.9 308.1 162.9 Z"
        fill="#ff9838"/>
    <path
        id="path_10"
        d="M 50.4 269.6 C 48.9 269.6 47.3 269 46.2 267.8 C 43.9 265.5 43.9 261.7 46.2 259.3 L 75.5 230 C 77.8 227.7 81.6 227.7 84 230 C 86.3 232.3 86.3 236.1 84 238.5 L 54.7 267.8 C 53.5 269 52 269.6 50.4 269.6 Z"
        fill="#ff9838"/>
    <path
        id="path_11"
        d="M 235.3 84.7 C 233.8 84.7 232.2 84.1 231.1 82.9 C 228.8 80.6 228.8 76.8 231.1 74.4 L 259.7 45.8 C 262 43.5 265.8 43.5 268.2 45.8 C 270.5 48.1 270.5 51.9 268.2 54.3 L 239.6 83 C 238.4 84.1 236.9 84.7 235.3 84.7 Z"
        fill="#ff9838"/>
    <path
        id="path_12"
        d="M 157.5 78.1 C 201.2 78.1 236.8 113.7 236.8 157.4 C 236.8 201.1 201.2 236.7 157.5 236.7 C 113.8 236.7 78.2 201.1 78.2 157.4 C 78.2 113.7 113.7 78.1 157.5 78.1 M 157.5 66.1 C 107.1 66.1 66.2 107 66.2 157.4 C 66.2 207.8 107.1 248.7 157.5 248.7 C 207.9 248.7 248.8 207.8 248.8 157.4 C 248.8 107 207.9 66.1 157.5 66.1 L 157.5 66.1 Z"
        fill="#ff9838"/>
</svg>
