<svg
    xmlns="http://www.w3.org/2000/svg"
    viewBox="0 0 313 313"
    id="vector">
    <path
        id="path_2"
        d="M 38.9 157.5 C 41.9 142 55.6 130.2 72 130.2 C 73.8 130.2 75.6 130.4 77.5 130.6 L 89.4 132.5 L 91.2 120.5 C 93.6 104.9 101.5 90.6 113.5 80.3 C 125.6 69.8 141.1 64.1 157.1 64.1 C 176.2 64.1 194.4 72.3 207 86.6 L 211 91.1 L 217.1 90.5 C 218.9 90.3 220.5 90.3 222.1 90.3 C 251.7 90.3 275.7 114.4 275.7 143.9 C 275.7 148.6 275.1 153.1 274 157.4 L 286.3 157.4 C 287.2 153 287.7 148.5 287.7 143.9 C 287.7 107.7 258.3 78.3 222.1 78.3 C 220 78.3 218 78.4 215.9 78.6 C 201.5 62.3 180.4 52.1 157 52.1 C 117.6 52.1 85 81 79.2 118.7 C 76.8 118.3 74.3 118.1 71.8 118.1 C 48.7 118.1 29.6 135.2 26.5 157.4 L 38.9 157.4 Z"
        fill="#b6bbbf"/>
    <path
        id="path_3"
        d="M 307.6 163.5 L 6.9 163.5 C 3.6 163.5 0.9 160.8 0.9 157.5 C 0.9 154.2 3.6 151.5 6.9 151.5 L 307.6 151.5 C 310.9 151.5 313.6 154.2 313.6 157.5 C 313.6 160.8 310.9 163.5 307.6 163.5 Z"
        fill="#b6bbbf"/>
    <path
        id="path_4"
        d="M 307.6 202.2 L 6.9 202.2 C 3.6 202.2 0.9 199.5 0.9 196.2 C 0.9 192.9 3.6 190.2 6.9 190.2 L 307.6 190.2 C 310.9 190.2 313.6 192.9 313.6 196.2 C 313.6 199.5 310.9 202.2 307.6 202.2 Z"
        fill="#b6bbbf"/>
    <path
        id="path_5"
        d="M 307.6 241 L 6.9 241 C 3.6 241 0.9 238.3 0.9 235 C 0.9 231.7 3.6 229 6.9 229 L 307.6 229 C 310.9 229 313.6 231.7 313.6 235 C 313.6 238.3 310.9 241 307.6 241 Z"
        fill="#b6bbbf"/>
</svg>
