<svg
    xmlns="http://www.w3.org/2000/svg"
    viewBox="0 0 320 320"
    id="vector">
    <path
        id="path"
        d="M 157.2 64.1 C 176.3 64.1 194.5 72.3 207.1 86.6 L 211.1 91.1 L 217.2 90.5 C 219 90.3 220.6 90.3 222.2 90.3 C 251.8 90.3 275.8 114.4 275.8 143.9 C 275.8 173.5 251.7 197.5 222.2 197.5 L 72 197.5 C 53.4 197.5 38.3 182.4 38.3 163.8 C 38.3 145.2 53.4 130.1 72 130.1 C 73.8 130.1 75.6 130.3 77.5 130.5 L 89.4 132.4 L 91.2 120.4 C 93.6 104.8 101.5 90.5 113.5 80.2 C 125.6 69.9 141.1 64.1 157.2 64.1 M 157.2 52.1 C 117.8 52.1 85.2 81 79.4 118.7 C 77 118.3 74.5 118.1 72 118.1 C 46.8 118.1 26.3 138.6 26.3 163.8 C 26.3 189 46.8 209.5 72 209.5 L 222.3 209.5 C 258.5 209.5 287.9 180.1 287.9 143.9 C 287.9 107.7 258.5 78.3 222.3 78.3 C 220.2 78.3 218.2 78.4 216.1 78.6 C 201.7 62.4 180.6 52.1 157.2 52.1 L 157.2 52.1 Z"
        fill="#bfb29b"/>
    <path
        id="path_1"
        d="M 179.1 287.7 C 178 287.7 177 287.4 176 286.8 C 173.2 285.1 172.2 281.4 173.9 278.6 L 198 238.4 C 199.7 235.6 203.4 234.6 206.2 236.3 C 209 238 210 241.7 208.3 244.5 L 184.2 284.7 C 183.1 286.6 181.1 287.7 179.1 287.7 Z"
        fill="#bfb29b"/>
    <path
        id="path_6"
        d="M 124.1 313.9 C 123 313.9 122 313.6 121 313 C 118.2 311.3 117.2 307.6 118.9 304.8 L 158.8 238.4 C 160.5 235.6 164.2 234.6 167 236.3 C 169.8 238 170.8 241.7 169.1 244.5 L 129.3 311 C 128.1 312.9 126.2 313.9 124.1 313.9 Z"
        fill="#bfb29b"/>
    <path
        id="path_7"
        d="M 100.6 287.7 C 99.5 287.7 98.5 287.4 97.5 286.8 C 94.7 285.1 93.7 281.4 95.4 278.6 L 119.5 238.4 C 121.2 235.6 124.9 234.6 127.7 236.3 C 130.5 238 131.5 241.7 129.8 244.5 L 105.7 284.7 C 104.7 286.6 102.7 287.7 100.6 287.7 Z"
        fill="#bfb29b"/>
</svg>
