<svg
    xmlns="http://www.w3.org/2000/svg"
    viewBox="0 0 313 313"
    id="vector">
    <path
        id="path"
        d="M 137.5 47.9 C 134.2 47.9 131.5 45.2 131.5 41.9 L 131.5 5.9 C 131.5 2.6 134.2 -0.1 137.5 -0.1 C 140.8 -0.1 143.5 2.6 143.5 5.9 L 143.5 41.9 C 143.5 45.3 140.9 47.9 137.5 47.9 Z"
        fill="#ff9838"/>
    <path
        id="path_1"
        d="M 70.2 75.9 C 68.7 75.9 67.1 75.3 66 74.1 L 40.4 48.6 C 38.1 46.3 38.1 42.5 40.4 40.1 C 42.7 37.7 46.5 37.8 48.9 40.1 L 74.4 65.6 C 76.7 67.9 76.7 71.7 74.4 74.1 C 73.2 75.3 71.7 75.9 70.2 75.9 Z"
        fill="#ff9838"/>
    <path
        id="path_6"
        d="M 42.2 143.2 L 6.2 143.2 C 2.9 143.2 0.2 140.5 0.2 137.2 C 0.2 133.9 2.9 131.2 6.2 131.2 L 42.2 131.2 C 45.5 131.2 48.2 133.9 48.2 137.2 C 48.2 140.5 45.6 143.2 42.2 143.2 Z"
        fill="#ff9838"/>
    <path
        id="path_7"
        d="M 44.7 236.1 C 43.2 236.1 41.6 235.5 40.5 234.3 C 38.2 232 38.2 228.2 40.5 225.8 L 66 200.3 C 68.3 198 72.1 198 74.5 200.3 C 76.8 202.6 76.8 206.4 74.5 208.8 L 49 234.3 C 47.8 235.5 46.2 236.1 44.7 236.1 Z"
        fill="#ff9838"/>
    <path
        id="path_12"
        d="M 205.5 75.2 C 204 75.2 202.4 74.6 201.3 73.4 C 199 71.1 199 67.3 201.3 64.9 L 226.2 40 C 228.5 37.7 232.3 37.7 234.7 40 C 237 42.3 237 46.1 234.7 48.5 L 209.8 73.4 C 208.6 74.7 207.1 75.2 205.5 75.2 Z"
        fill="#ff9838"/>
    <path
        id="path_13"
        d="M 110.8 199.5 C 87 189.1 70.4 165.3 70.4 137.7 C 70.4 100.5 100.7 70.3 137.8 70.3 C 167.5 70.3 192.7 89.6 201.7 116.2 C 204.3 115.8 206.9 115.7 209.5 115.7 C 211.1 115.7 212.6 115.8 214.2 115.9 C 204.7 82.7 174.1 58.3 137.8 58.3 C 93.9 58.3 58.4 93.9 58.4 137.7 C 58.4 173.5 82 203.7 114.5 213.7 C 112.2 209.5 110.8 204.6 110.8 199.5 Z"
        fill="#ff9838"/>
    <path
        id="path_14"
        d="M 209.5 121.7 C 224.1 121.7 238 128 247.7 138.9 L 251.7 143.4 L 257.8 142.8 C 259.1 142.7 260.4 142.6 261.6 142.6 C 283.9 142.6 302.1 160.8 302.1 183.1 C 302.1 205.4 283.9 223.6 261.6 223.6 L 141.3 223.6 C 127.7 223.6 116.7 212.6 116.7 199 C 116.7 185.4 127.7 174.4 141.3 174.4 C 142.6 174.4 143.9 174.5 145.3 174.7 L 157.2 176.6 L 159 164.6 C 160.8 152.7 166.9 141.8 176.1 133.9 C 185.4 126.1 197.2 121.7 209.5 121.7 M 209.5 109.7 C 178 109.7 151.9 132.8 147.3 163 C 145.4 162.7 143.4 162.5 141.4 162.5 C 121.2 162.5 104.8 178.9 104.8 199.1 C 104.8 219.3 121.2 235.7 141.4 235.7 L 261.6 235.7 C 290.6 235.7 314.1 212.2 314.1 183.2 C 314.1 154.2 290.6 130.7 261.6 130.7 C 259.9 130.7 258.3 130.8 256.7 130.9 C 245.1 117.9 228.2 109.7 209.5 109.7 L 209.5 109.7 Z"
        fill="#b6bbbf"/>
    <path
        id="path_15"
        d="M 192.8 313.9 C 191.7 313.9 190.7 313.6 189.7 313 C 186.9 311.3 185.9 307.6 187.6 304.8 L 212.1 264 C 213.8 261.2 217.5 260.2 220.3 261.9 C 223.1 263.6 224.1 267.3 222.4 270.1 L 198 311 C 196.8 312.9 194.9 313.9 192.8 313.9 Z"
        fill="#00aebd"/>
    <path
        id="path_16"
        d="M 239.8 300.9 C 238.7 300.9 237.7 300.6 236.7 300 C 233.9 298.3 232.9 294.6 234.6 291.8 L 251.3 264 C 253 261.2 256.7 260.2 259.5 261.9 C 262.3 263.6 263.3 267.3 261.6 270.1 L 245 298 C 243.9 299.9 241.9 300.9 239.8 300.9 Z"
        fill="#00aebd"/>
    <path
        id="path_17"
        d="M 161.4 300.9 C 160.3 300.9 159.3 300.6 158.3 300 C 155.5 298.3 154.5 294.6 156.2 291.8 L 172.9 264 C 174.6 261.2 178.3 260.2 181.1 261.9 C 183.9 263.6 184.9 267.3 183.2 270.1 L 166.5 298 C 165.4 299.9 163.4 300.9 161.4 300.9 Z"
        fill="#00aebd"/>
</svg>
