<svg
    xmlns="http://www.w3.org/2000/svg"
    viewBox="0 0 313 313"
    id="vector">
    <path
        id="path_2"
        d="M 222.2 78.3 C 220.1 78.3 218.1 78.4 216 78.6 C 201.6 62.3 180.5 52.1 157.1 52.1 C 117.7 52.1 85.1 81 79.3 118.7 C 76.9 118.3 74.4 118.1 71.9 118.1 C 46.4 118.1 25.8 139 26.2 164.6 C 26.6 189.7 47.6 209.5 72.7 209.5 L 130.6 209.5 C 132.7 209.5 134.7 208.4 135.7 206.6 L 135.7 206.6 C 138.1 202.6 135.2 197.5 130.6 197.5 L 72.6 197.5 C 53.7 197.5 37.9 182.1 38.2 163.2 C 38.5 144.9 53.5 130.1 71.9 130.1 C 73.7 130.1 75.5 130.3 77.4 130.5 L 89.3 132.4 L 91.1 120.4 C 93.5 104.8 101.4 90.5 113.4 80.2 C 125.5 69.7 141 64 157 64 C 176.1 64 194.3 72.2 206.9 86.5 L 210.9 91 L 217 90.4 C 218.8 90.2 220.4 90.2 222 90.2 C 251.8 90.2 276.1 114.7 275.6 144.7 C 275.2 174.1 250.6 197.5 221.2 197.5 L 189 197.5 C 186.9 197.5 184.9 198.6 183.9 200.4 L 183.9 200.4 C 181.5 204.4 184.4 209.5 189 209.5 L 221.3 209.5 C 257.4 209.5 287.4 180.8 287.9 144.8 C 288.3 108.2 258.8 78.3 222.2 78.3 Z"
        fill="#b6bbbf"/>
    <path
        id="path_3"
        d="M 182.2 238.5 C 181.1 236.6 179.1 235.5 177 235.5 L 147.6 235.5 L 182 178.2 C 183.7 175.4 182.8 171.7 179.9 170 C 177.1 168.3 173.4 169.2 171.7 172.1 L 131.8 238.5 C 130.1 241.3 131 245 133.9 246.7 C 134.7 247.2 135.6 247.5 136.5 247.5 C 136.5 247.5 136.5 247.5 136.5 247.5 C 136.7 247.5 136.8 247.5 137 247.5 C 137 247.5 137 247.5 137.1 247.5 C 137.1 247.5 137.1 247.5 137.2 247.5 L 166.5 247.5 L 132 304.8 C 130.3 307.6 131.2 311.3 134.1 313 C 135.1 313.6 136.1 313.9 137.2 313.9 C 139.2 313.9 141.2 312.9 142.3 311 L 182.2 244.6 C 183.3 242.7 183.3 240.4 182.2 238.5 Z"
        fill="#ff9838"/>
</svg>
