<svg
    xmlns="http://www.w3.org/2000/svg"
    viewBox="0 0 313 313"
    id="vector">
    <path
        id="path_2"
        d="M 137.5 47.9 C 134.2 47.9 131.5 45.2 131.5 41.9 L 131.5 5.9 C 131.5 2.6 134.2 -0.1 137.5 -0.1 C 140.8 -0.1 143.5 2.6 143.5 5.9 L 143.5 41.9 C 143.5 45.3 140.9 47.9 137.5 47.9 Z"
        fill="#ff9838"/>
    <path
        id="path_3"
        d="M 70.2 75.9 C 68.7 75.9 67.1 75.3 66 74.1 L 40.4 48.6 C 38.1 46.3 38.1 42.5 40.4 40.1 C 42.7 37.8 46.5 37.8 48.9 40.1 L 74.4 65.6 C 76.7 67.9 76.7 71.7 74.4 74.1 C 73.2 75.3 71.7 75.9 70.2 75.9 Z"
        fill="#ff9838"/>
    <path
        id="path_8"
        d="M 42.2 143.2 L 6.2 143.2 C 2.9 143.2 0.2 140.5 0.2 137.2 C 0.2 133.9 2.9 131.2 6.2 131.2 L 42.2 131.2 C 45.5 131.2 48.2 133.9 48.2 137.2 C 48.2 140.5 45.6 143.2 42.2 143.2 Z"
        fill="#ff9838"/>
    <path
        id="path_9"
        d="M 44.7 236.1 C 43.2 236.1 41.6 235.5 40.5 234.3 C 38.2 232 38.2 228.2 40.5 225.8 L 66 200.3 C 68.3 198 72.1 198 74.5 200.3 C 76.8 202.6 76.8 206.4 74.5 208.8 L 49 234.3 C 47.8 235.5 46.2 236.1 44.7 236.1 Z"
        fill="#ff9838"/>
    <path
        id="path_10"
        d="M 205.5 75.2 C 204 75.2 202.4 74.6 201.3 73.4 C 199 71.1 199 67.3 201.3 64.9 L 226.2 40 C 228.5 37.7 232.3 37.7 234.7 40 C 237 42.3 237 46.1 234.7 48.5 L 209.8 73.4 C 208.6 74.7 207.1 75.2 205.5 75.2 Z"
        fill="#ff9838"/>
    <path
        id="path_11"
        d="M 110.8 199.5 C 87 189.1 70.4 165.3 70.4 137.7 C 70.4 100.5 100.7 70.3 137.8 70.3 C 167.5 70.3 192.7 89.6 201.7 116.2 C 204.3 115.8 206.9 115.7 209.5 115.7 C 211.1 115.7 212.6 115.8 214.2 115.9 C 204.7 82.7 174.1 58.3 137.8 58.3 C 93.9 58.3 58.4 93.9 58.4 137.7 C 58.4 173.5 82 203.7 114.5 213.7 C 112.2 209.5 110.8 204.6 110.8 199.5 Z"
        fill="#ff9838"/>
    <path
        id="path_12"
        d="M 261.4 130.7 C 259.7 130.7 258.1 130.8 256.5 130.9 C 245 117.9 228.1 109.7 209.4 109.7 C 177.9 109.7 151.8 132.8 147.2 163 C 145.3 162.7 143.3 162.5 141.3 162.5 C 121.3 162.5 105.1 178.5 104.7 198.4 C 104.3 218.9 121.5 235.7 142 235.7 L 181 235.7 C 183.1 235.7 185.1 234.6 186.1 232.8 L 186.1 232.8 C 188.5 228.8 185.6 223.7 181 223.7 L 141.7 223.7 C 128 223.7 116.3 212.4 116.6 198.7 C 116.8 185.3 127.8 174.5 141.2 174.5 C 142.5 174.5 143.8 174.6 145.2 174.8 L 157.1 176.7 L 158.9 164.7 C 160.7 152.8 166.8 141.9 176 134 C 185.2 126 197.1 121.6 209.3 121.6 C 223.9 121.6 237.8 127.9 247.5 138.8 L 251.5 143.3 L 257.6 142.7 C 258.9 142.6 260.2 142.5 261.4 142.5 C 284.1 142.5 302.4 161.2 301.9 184 C 301.4 206.1 282.8 223.5 260.7 223.5 L 239.4 223.5 C 237.3 223.5 235.3 224.6 234.3 226.4 L 234.3 226.4 C 231.9 230.4 234.8 235.5 239.4 235.5 L 260.6 235.5 C 289.4 235.5 313.5 212.7 314 183.9 C 314.4 154.6 290.7 130.7 261.4 130.7 Z"
        fill="#b6bbbf"/>
    <path
        id="path_13"
        d="M 240.6 251.5 C 239.5 249.6 237.5 248.5 235.4 248.5 L 206 248.5 L 232.9 203.6 C 234.6 200.8 233.7 197.1 230.8 195.4 C 228 193.7 224.3 194.6 222.6 197.5 L 190.2 251.4 C 188.5 254.2 189.4 257.9 192.3 259.6 C 193.1 260.1 194 260.4 194.9 260.4 C 194.9 260.4 194.9 260.4 194.9 260.4 C 195.1 260.4 195.2 260.4 195.4 260.4 C 195.4 260.4 195.4 260.4 195.5 260.4 C 195.5 260.4 195.5 260.4 195.6 260.4 L 224.9 260.4 L 198.3 304.7 C 196.6 307.5 197.5 311.2 200.4 312.9 C 201.4 313.5 202.4 313.8 203.5 313.8 C 205.5 313.8 207.5 312.8 208.6 310.9 L 240.6 257.6 C 241.6 255.7 241.7 253.4 240.6 251.5 Z"
        fill="#ff9838"/>
</svg>
