<svg
    xmlns="http://www.w3.org/2000/svg"
    viewBox="0 0 320 320"
    id="vector">
    <path
        id="path"
        d="M 157.2 64.1 C 176.3 64.1 194.5 72.3 207.1 86.6 L 211.1 91.1 L 217.2 90.5 C 219 90.3 220.6 90.3 222.2 90.3 C 251.8 90.3 275.8 114.4 275.8 143.9 C 275.8 173.5 251.7 197.5 222.2 197.5 L 72 197.5 C 53.4 197.5 38.3 182.4 38.3 163.8 C 38.3 145.2 53.4 130.1 72 130.1 C 73.8 130.1 75.6 130.3 77.5 130.5 L 89.4 132.4 L 91.2 120.4 C 93.6 104.8 101.5 90.5 113.5 80.2 C 125.6 69.9 141.1 64.1 157.2 64.1 M 157.2 52.1 C 117.8 52.1 85.2 81 79.4 118.7 C 77 118.3 74.5 118.1 72 118.1 C 46.8 118.1 26.3 138.6 26.3 163.8 C 26.3 189 46.8 209.5 72 209.5 L 222.3 209.5 C 258.5 209.5 287.9 180.1 287.9 143.9 C 287.9 107.7 258.5 78.3 222.3 78.3 C 220.2 78.3 218.2 78.4 216.1 78.6 C 201.7 62.4 180.6 52.1 157.2 52.1 L 157.2 52.1 Z"
        fill="#bfb29b"/>
    <path
        id="path_1"
        d="M 157.2 64.1 C 176.3 64.1 194.5 72.3 207.1 86.6 L 211.1 91.1 L 217.2 90.5 C 219 90.3 220.6 90.3 222.2 90.3 C 251.8 90.3 275.8 114.4 275.8 143.9 C 275.8 173.5 251.7 197.5 222.2 197.5 L 72 197.5 C 53.4 197.5 38.3 182.4 38.3 163.8 C 38.3 145.2 53.4 130.1 72 130.1 C 73.8 130.1 75.6 130.3 77.5 130.5 L 89.4 132.4 L 91.2 120.4 C 93.6 104.8 101.5 90.5 113.5 80.2 C 125.6 69.9 141.1 64.1 157.2 64.1 M 157.2 52.1 C 117.8 52.1 85.2 81 79.4 118.7 C 77 118.3 74.5 118.1 72 118.1 C 46.8 118.1 26.3 138.6 26.3 163.8 C 26.3 189 46.8 209.5 72 209.5 L 222.3 209.5 C 258.5 209.5 287.9 180.1 287.9 143.9 C 287.9 107.7 258.5 78.3 222.3 78.3 C 220.2 78.3 218.2 78.4 216.1 78.6 C 201.7 62.4 180.6 52.1 157.2 52.1 L 157.2 52.1 Z"
        fill="#bfb29b"/>
    <path
        id="path_4"
        d="M 163.4 313.9 C 162.3 313.9 161.3 313.6 160.3 313 C 157.5 311.3 156.5 307.6 158.2 304.8 L 198.1 238.4 C 199.8 235.6 203.5 234.6 206.3 236.3 C 209.1 238 210.1 241.7 208.4 244.5 L 168.5 311 C 167.4 312.9 165.4 313.9 163.4 313.9 Z"
        fill="#bfb29b"/>
    <path
        id="path_5"
        d="M 84.9 313.9 C 83.8 313.9 82.8 313.6 81.8 313 C 79 311.3 78 307.6 79.7 304.8 L 119.6 238.4 C 121.3 235.6 125 234.6 127.8 236.3 C 130.6 238 131.6 241.7 129.9 244.5 L 90 311 C 88.9 312.9 86.9 313.9 84.9 313.9 Z"
        fill="#bfb29b"/>
    <path
        id="path_6"
        d="M 139.9 287.7 C 138.8 287.7 137.8 287.4 136.8 286.8 C 134 285.1 133 281.4 134.7 278.6 L 158.8 238.4 C 160.5 235.6 164.2 234.6 167 236.3 C 169.8 238 170.8 241.7 169.1 244.5 L 145 284.8 C 143.9 286.6 141.9 287.7 139.9 287.7 Z"
        fill="#bfb29b"/>
    <path
        id="path_7"
        d="M 61.4 287.7 C 60.3 287.7 59.3 287.4 58.3 286.8 C 55.5 285.1 54.5 281.4 56.2 278.6 L 80.3 238.4 C 82 235.6 85.7 234.6 88.5 236.3 C 91.3 238 92.3 241.7 90.6 244.5 L 66.5 284.7 C 65.4 286.6 63.4 287.7 61.4 287.7 Z"
        fill="#bfb29b"/>
    <path
        id="path_14"
        d="M 218.3 287.7 C 217.2 287.7 216.2 287.4 215.2 286.8 C 212.4 285.1 211.4 281.4 213.1 278.6 L 237.2 238.4 C 238.9 235.6 242.6 234.6 245.4 236.3 C 248.2 238 249.2 241.7 247.5 244.5 L 223.4 284.7 C 222.4 286.6 220.4 287.7 218.3 287.7 Z"
        fill="#bfb29b"/>
</svg>
