<svg
    xmlns="http://www.w3.org/2000/svg"
    viewBox="0 0 313 313"
    id="vector">
    <path
        id="path_2"
        d="M 157.2 64.1 C 176.3 64.1 194.5 72.3 207.1 86.6 L 211.1 91.1 L 217.2 90.5 C 219 90.3 220.6 90.3 222.2 90.3 C 251.8 90.3 275.8 114.4 275.8 143.9 C 275.8 173.5 251.7 197.5 222.2 197.5 L 72 197.5 C 53.4 197.5 38.3 182.4 38.3 163.8 C 38.3 145.2 53.4 130.1 72 130.1 C 73.8 130.1 75.6 130.3 77.5 130.5 L 89.4 132.4 L 91.2 120.4 C 93.6 104.8 101.5 90.5 113.5 80.2 C 125.6 69.9 141.1 64.1 157.2 64.1 M 157.2 52.1 C 117.8 52.1 85.2 81 79.4 118.7 C 77 118.3 74.5 118.1 72 118.1 C 46.8 118.1 26.3 138.6 26.3 163.8 C 26.3 189 46.8 209.5 72 209.5 L 222.3 209.5 C 258.5 209.5 287.9 180.1 287.9 143.9 C 287.9 107.7 258.5 78.3 222.3 78.3 C 220.2 78.3 218.2 78.4 216.1 78.6 C 201.7 62.4 180.6 52.1 157.2 52.1 L 157.2 52.1 Z"
        fill="#b6bbbf"/>
    <path
        id="path_3"
        d="M 188.5 286.1 L 168.7 274.7 L 188.4 263.3 C 191.3 261.6 192.2 258 190.6 255.1 C 188.9 252.2 185.3 251.3 182.4 252.9 L 162.7 264.3 L 162.7 241.5 C 162.7 238.2 160 235.5 156.7 235.5 C 156.7 235.5 156.7 235.5 156.7 235.5 C 153.4 235.5 150.7 238.2 150.7 241.5 L 150.7 264.3 L 131 253 C 128.1 251.3 124.5 252.3 122.8 255.2 C 121.1 258.1 122.1 261.7 125 263.4 L 144.8 274.8 L 125 286.2 C 122.1 287.9 121.2 291.5 122.8 294.4 C 123.9 296.3 125.9 297.4 128 297.4 C 129 297.4 130.1 297.1 131 296.6 L 150.7 285.2 L 150.7 308 C 150.7 311.3 153.4 314 156.7 314 C 156.7 314 156.7 314 156.7 314 C 160 314 162.7 311.3 162.7 308 L 162.7 285.2 L 182.5 296.6 C 183.4 297.1 184.5 297.4 185.5 297.4 C 187.6 297.4 189.6 296.3 190.7 294.4 C 192.4 291.4 191.4 287.7 188.5 286.1 Z"
        fill="#00aebd"/>
</svg>
