<svg
    xmlns="http://www.w3.org/2000/svg"
    viewBox="0 0 313 313"
    id="vector">
    <path
        id="path"
        d="M 157.2 53.3 C 153.9 53.3 151.2 50.6 151.2 47.3 L 151.2 5.9 C 151.2 2.6 153.9 -0.1 157.2 -0.1 C 160.5 -0.1 163.2 2.6 163.2 5.9 L 163.2 47.3 C 163.2 50.6 160.5 53.3 157.2 53.3 Z"
        fill="#ff9838"/>
    <path
        id="path_1"
        d="M 157.2 313.8 C 153.9 313.8 151.2 311.1 151.2 307.8 L 151.2 267.4 C 151.2 264.1 153.9 261.4 157.2 261.4 C 160.5 261.4 163.2 264.1 163.2 267.4 L 163.2 307.8 C 163.2 311.1 160.5 313.8 157.2 313.8 Z"
        fill="#ff9838"/>
    <path
        id="path_2"
        d="M 79.7 85.4 C 78.2 85.4 76.6 84.8 75.5 83.6 L 46.2 54.4 C 43.9 52.1 43.9 48.3 46.2 45.9 C 48.5 43.6 52.3 43.6 54.7 45.9 L 84 75.2 C 86.3 77.5 86.3 81.3 84 83.7 C 82.8 84.8 81.2 85.4 79.7 85.4 Z"
        fill="#ff9838"/>
    <path
        id="path_3"
        d="M 263.9 269.6 C 262.4 269.6 260.8 269 259.7 267.8 L 231.1 239.2 C 228.8 236.9 228.8 233.1 231.1 230.7 C 233.4 228.4 237.2 228.4 239.6 230.7 L 268.2 259.3 C 270.5 261.6 270.5 265.4 268.2 267.8 C 267 269 265.4 269.6 263.9 269.6 Z"
        fill="#ff9838"/>
    <path
        id="path_13"
        d="M 47.6 162.9 L 6.2 162.9 C 2.9 162.9 0.2 160.2 0.2 156.9 C 0.2 153.6 2.9 150.9 6.2 150.9 L 47.6 150.9 C 50.9 150.9 53.6 153.6 53.6 156.9 C 53.6 160.2 50.9 162.9 47.6 162.9 Z"
        fill="#ff9838"/>
    <path
        id="path_14"
        d="M 50.4 269.6 C 48.9 269.6 47.3 269 46.2 267.8 C 43.9 265.5 43.9 261.7 46.2 259.3 L 75.5 230 C 77.8 227.7 81.6 227.7 84 230 C 86.3 232.3 86.3 236.1 84 238.5 L 54.7 267.8 C 53.5 269 52 269.6 50.4 269.6 Z"
        fill="#ff9838"/>
    <path
        id="path_15"
        d="M 235.3 84.7 C 233.8 84.7 232.2 84.1 231.1 82.9 C 228.8 80.6 228.8 76.8 231.1 74.4 L 259.7 45.8 C 262 43.5 265.8 43.5 268.2 45.8 C 270.5 48.1 270.5 51.9 268.2 54.3 L 239.6 83 C 238.4 84.1 236.9 84.7 235.3 84.7 Z"
        fill="#ff9838"/>
    <path
        id="path_16"
        d="M 222.1 203.3 C 207.7 223.5 184.1 236.8 157.5 236.8 C 113.8 236.8 78.2 201.2 78.2 157.5 C 78.2 113.8 113.8 78.2 157.5 78.2 C 188.6 78.2 215.6 96.2 228.6 122.3 C 231.1 121.8 233.7 121.6 236.3 121.6 C 238.1 121.6 239.9 121.7 241.7 122 C 227.8 89.2 195.4 66.2 157.6 66.2 C 107.2 66.2 66.3 107.1 66.3 157.5 C 66.3 207.9 107.2 248.8 157.6 248.8 C 191.3 248.8 220.8 230.5 236.6 203.3 L 222.1 203.3 Z"
        fill="#ff9838"/>
    <path
        id="path_17"
        d="M 236.2 127.5 C 246.2 127.5 255.7 131.8 262.3 139.3 L 266.3 143.8 L 272.4 143.2 C 273.3 143.1 274.1 143.1 275 143.1 C 289.9 143.1 302.1 155.2 302.1 170.2 C 302.1 185.1 290 197.3 275 197.3 L 185.5 197.3 C 177.1 197.3 170.3 190.5 170.3 182.1 C 170.3 173.7 177.1 166.9 185.5 166.9 C 186.3 166.9 187.1 167 188 167.1 L 199.9 169 L 201.7 157 C 203 148.9 207.1 141.4 213.4 136 C 219.7 130.5 227.8 127.5 236.2 127.5 M 236.2 115.5 C 212.8 115.5 193.3 132.7 189.9 155.2 C 188.5 155 187 154.8 185.5 154.8 C 170.5 154.8 158.3 167 158.3 182 C 158.3 197 170.5 209.2 185.5 209.2 L 275 209.2 C 296.6 209.2 314.1 191.7 314.1 170.1 C 314.1 148.5 296.6 131 275 131 C 273.8 131 272.5 131.1 271.3 131.2 C 262.7 121.6 250.2 115.5 236.2 115.5 L 236.2 115.5 Z"
        fill="#b6bbbf"/>
</svg>
