<svg
    xmlns="http://www.w3.org/2000/svg"
    viewBox="0 0 313 313"
    id="vector">
    <path
        id="path_2"
        d="M 91.7 38.9 C 88.4 38.9 85.7 36.2 85.7 32.9 L 85.7 5.7 C 85.7 2.4 88.4 -0.3 91.7 -0.3 C 95 -0.3 97.7 2.4 97.7 5.7 L 97.7 32.9 C 97.7 36.2 95 38.9 91.7 38.9 Z"
        fill="#ff9838"/>
    <path
        id="path_3"
        d="M 50.5 55.9 C 49 55.9 47.4 55.3 46.3 54.1 L 27 34.9 C 24.7 32.6 24.7 28.8 27 26.4 C 29.3 24.1 33.1 24.1 35.5 26.4 L 54.7 45.6 C 57 47.9 57 51.7 54.7 54.1 C 53.6 55.3 52 55.9 50.5 55.9 Z"
        fill="#ff9838"/>
    <path
        id="path_6"
        d="M 33.4 97.1 L 6.2 97.1 C 2.9 97.1 0.2 94.4 0.2 91.1 C 0.2 87.8 2.9 85.1 6.2 85.1 L 33.4 85.1 C 36.7 85.1 39.4 87.8 39.4 91.1 C 39.4 94.4 36.7 97.1 33.4 97.1 Z"
        fill="#ff9838"/>
    <path
        id="path_7"
        d="M 61.2 125.4 C 64.6 124.4 68.3 123.9 72 123.9 C 74.1 123.9 76.3 124.1 78.4 124.4 L 84.4 125.4 L 84.6 124.3 C 69.4 121 57.9 107.5 57.9 91.3 C 57.9 72.7 73 57.5 91.7 57.5 C 102.1 57.5 111.4 62.2 117.6 69.6 C 121 67.4 124.6 65.4 128.4 63.8 C 120.1 52.7 106.8 45.5 91.8 45.5 C 66.5 45.5 46 66 46 91.3 C 45.9 104.8 51.8 117 61.2 125.4 Z"
        fill="#ff9838"/>
    <path
        id="path_8"
        d="M 157.2 63.9 C 176.3 63.9 194.5 72.1 207.1 86.4 L 211.1 90.9 L 217.2 90.3 C 219 90.1 220.6 90.1 222.2 90.1 C 251.8 90.1 275.8 114.2 275.8 143.7 C 275.8 173.3 251.7 197.3 222.2 197.3 L 72 197.3 C 53.4 197.3 38.3 182.2 38.3 163.6 C 38.3 145 53.4 129.9 72 129.9 C 73.8 129.9 75.6 130.1 77.5 130.3 L 89.4 132.2 L 91.2 120.2 C 93.6 104.6 101.5 90.3 113.5 80 C 125.6 69.6 141.1 63.9 157.2 63.9 M 157.2 51.9 C 117.8 51.9 85.2 80.8 79.4 118.5 C 77 118.1 74.5 117.9 72 117.9 C 46.8 117.9 26.3 138.4 26.3 163.6 C 26.3 188.8 46.8 209.3 72 209.3 L 222.3 209.3 C 258.5 209.3 287.9 179.9 287.9 143.7 C 287.9 107.5 258.5 78.1 222.3 78.1 C 220.2 78.1 218.2 78.2 216.1 78.4 C 201.7 62.1 180.6 51.9 157.2 51.9 L 157.2 51.9 Z"
        fill="#b6bbbf"/>
    <path
        id="path_9"
        d="M 188.5 286.1 L 168.7 274.7 L 188.4 263.3 C 191.3 261.6 192.2 258 190.6 255.1 C 188.9 252.2 185.3 251.3 182.4 252.9 L 162.7 264.3 L 162.7 241.5 C 162.7 238.2 160 235.5 156.7 235.5 C 156.7 235.5 156.7 235.5 156.7 235.5 C 153.4 235.5 150.7 238.2 150.7 241.5 L 150.7 264.3 L 131 253 C 128.1 251.4 124.5 252.3 122.8 255.2 C 121.1 258.1 122.1 261.7 125 263.4 L 144.8 274.8 L 125 286.2 C 122.1 287.9 121.2 291.5 122.8 294.4 C 123.9 296.3 125.9 297.4 128 297.4 C 129 297.4 130.1 297.1 131 296.6 L 150.7 285.2 L 150.7 308 C 150.7 311.3 153.4 314 156.7 314 C 156.7 314 156.7 314 156.7 314 C 160 314 162.7 311.3 162.7 308 L 162.7 285.2 L 182.5 296.6 C 183.4 297.1 184.5 297.4 185.5 297.4 C 187.6 297.4 189.6 296.3 190.7 294.4 C 192.4 291.4 191.4 287.7 188.5 286.1 Z"
        fill="#00aebd"/>
    <path
        id="path_10"
        d="M 91.6 276.4 L 77.5 268.3 L 91.6 260.2 C 94.5 258.5 95.5 254.9 93.8 252 C 92.1 249.1 88.5 248.1 85.6 249.8 L 71.5 257.9 L 71.5 241.6 C 71.5 238.3 68.8 235.6 65.5 235.6 C 62.2 235.6 59.5 238.3 59.5 241.6 L 59.5 257.9 L 45.4 249.8 C 42.5 248.1 38.9 249.1 37.2 252 C 35.5 254.9 36.5 258.5 39.4 260.2 L 53.5 268.3 L 39.4 276.4 C 36.5 278.1 35.5 281.7 37.2 284.6 C 38.3 286.5 40.3 287.6 42.4 287.6 C 43.4 287.6 44.4 287.3 45.4 286.8 L 59.5 278.7 L 59.5 295 C 59.5 298.3 62.2 301 65.5 301 C 68.8 301 71.5 298.3 71.5 295 L 71.5 278.7 L 85.6 286.8 C 86.5 287.3 87.6 287.6 88.6 287.6 C 90.7 287.6 92.7 286.5 93.8 284.6 C 95.5 281.7 94.5 278 91.6 276.4 Z"
        fill="#00aebd"/>
    <path
        id="path_11"
        d="M 274.5 276.4 L 260.4 268.3 L 274.5 260.2 C 277.4 258.5 278.4 254.9 276.7 252 C 275 249.1 271.4 248.1 268.5 249.8 L 254.4 257.9 L 254.4 241.6 C 254.4 238.3 251.7 235.6 248.4 235.6 C 245.1 235.6 242.4 238.3 242.4 241.6 L 242.4 257.9 L 228.3 249.8 C 225.4 248.1 221.8 249.1 220.1 252 C 218.4 254.9 219.4 258.5 222.3 260.2 L 236.4 268.3 L 222.3 276.4 C 219.4 278.1 218.4 281.7 220.1 284.6 C 221.2 286.5 223.2 287.6 225.3 287.6 C 226.3 287.6 227.3 287.3 228.3 286.8 L 242.4 278.7 L 242.4 295 C 242.4 298.3 245.1 301 248.4 301 C 251.7 301 254.4 298.3 254.4 295 L 254.4 278.7 L 268.5 286.8 C 269.4 287.3 270.5 287.6 271.5 287.6 C 273.6 287.6 275.6 286.5 276.7 284.6 C 278.3 281.7 277.4 278 274.5 276.4 Z"
        fill="#00aebd"/>
</svg>
