<svg
    xmlns="http://www.w3.org/2000/svg"
    viewBox="0 0 313 313"
    id="vector">
    <path
        id="path"
        d="M 183.1 250.1 C 183.1 250.1 183.1 250.1 183.1 250.1 C 181 250.1 179.1 249 178 247.3 L 122.7 160.1 C 121.5 158.1 121.5 155.6 122.7 153.7 L 178 66.6 C 179.1 64.9 181 63.8 183.1 63.8 C 183.1 63.8 183.1 63.8 183.1 63.8 C 185.1 63.8 187.1 64.8 188.2 66.6 L 243.7 153.7 C 245 155.7 245 158.2 243.7 160.1 L 188.3 247.3 C 187.1 249 185.2 250.1 183.1 250.1 Z M 135 156.9 L 183.2 232.9 L 231.5 156.9 L 183.1 81 L 135 156.9 Z"
        fill="#00aebd"/>
    <path
        id="path_1"
        d="M 104.6 125.5 C 104.6 125.5 104.6 125.5 104.6 125.5 C 102.5 125.5 100.6 124.4 99.5 122.7 L 73.5 81.7 C 72.3 79.7 72.3 77.2 73.5 75.3 L 99.5 34.3 C 100.6 32.6 102.5 31.5 104.6 31.5 C 104.6 31.5 104.6 31.5 104.6 31.5 C 106.6 31.5 108.6 32.5 109.7 34.3 L 135.8 75.3 C 137.1 77.3 137.1 79.8 135.8 81.7 L 109.7 122.7 C 108.6 124.5 106.7 125.5 104.6 125.5 Z M 85.7 78.5 L 104.6 108.3 L 123.6 78.5 L 104.6 48.7 L 85.7 78.5 Z"
        fill="#00aebd"/>
    <path
        id="path_4"
        d="M 123.7 276.8 C 123.7 276.8 123.7 276.8 123.7 276.8 C 121.6 276.8 119.7 275.7 118.6 274 L 105 252.5 C 103.8 250.5 103.8 248 105 246.1 L 118.6 224.6 C 119.7 222.9 121.6 221.8 123.7 221.8 C 123.7 221.8 123.7 221.8 123.7 221.8 C 125.7 221.8 127.7 222.8 128.8 224.6 L 142.5 246.1 C 143.8 248.1 143.8 250.6 142.5 252.5 L 128.8 274 C 127.7 275.7 125.8 276.8 123.7 276.8 Z M 117.2 249.3 L 123.7 259.6 L 130.3 249.3 L 123.7 239 L 117.2 249.3 Z"
        fill="#00aebd"/>
</svg>
