<svg
    xmlns="http://www.w3.org/2000/svg"
    viewBox="0 0 192 192"
    id="vector">
    <path
        id="path_2"
        d="M 95.5 12.9 C 109 12.9 121.9 18.7 130.8 28.8 L 133.7 32 L 138 31.6 C 139.3 31.5 140.4 31.4 141.6 31.4 C 162.5 31.4 179.5 48.4 179.5 69.3 C 179.5 90.2 162.5 107.2 141.6 107.2 L 35.3 107.2 C 22.1 107.2 11.4 96.5 11.4 83.3 C 11.4 70.1 22.1 59.4 35.3 59.4 C 36.6 59.4 37.9 59.5 39.2 59.7 L 47.6 61.1 L 48.9 52.6 C 50.6 41.6 56.2 31.5 64.7 24.1 C 73.2 17 84.2 12.9 95.5 12.9 M 95.5 4.4 C 67.6 4.4 44.6 24.8 40.5 51.5 C 38.8 51.2 37.1 51.1 35.3 51.1 C 17.4 51.1 3 65.6 3 83.4 C 3 101.3 17.5 115.7 35.3 115.7 L 141.6 115.7 C 167.2 115.7 188 94.9 188 69.3 C 188 43.7 167.2 22.9 141.6 22.9 C 140.1 22.9 138.7 23 137.2 23.1 C 127 11.7 112.1 4.4 95.5 4.4 L 95.5 4.4 Z"
        fill="#b6bbbf"/>
    <path
        id="path_3"
        d="M 137.2 161.8 C 129.4 161.8 123.1 155.5 123.1 147.7 C 123.1 139.9 129.4 133.6 137.2 133.6 C 145 133.6 151.3 139.9 151.3 147.7 C 151.3 155.5 145 161.8 137.2 161.8 Z M 137.2 142 C 134.1 142 131.5 144.5 131.5 147.7 C 131.5 150.8 134 153.4 137.2 153.4 C 140.3 153.4 142.9 150.9 142.9 147.7 C 142.8 144.5 140.3 142 137.2 142 Z"
        fill="#00aebd"/>
    <path
        id="path_5"
        d="M 54.1 189.6 C 46.3 189.6 40 183.3 40 175.5 C 40 167.7 46.3 161.4 54.1 161.4 C 61.9 161.4 68.2 167.7 68.2 175.5 C 68.3 183.3 61.9 189.6 54.1 189.6 Z M 54.1 169.8 C 51 169.8 48.4 172.3 48.4 175.5 C 48.4 178.6 50.9 181.2 54.1 181.2 C 57.2 181.2 59.8 178.7 59.8 175.5 C 59.8 172.4 57.3 169.8 54.1 169.8 Z"
        fill="#00aebd"/>
    <path
        id="path_6"
        d="M 95.6 175.8 C 87.8 175.8 81.5 169.5 81.5 161.7 C 81.5 153.9 87.8 147.6 95.6 147.6 C 103.4 147.6 109.8 153.9 109.8 161.7 C 109.8 169.5 103.4 175.8 95.6 175.8 Z M 95.6 156 C 92.5 156 89.9 158.5 89.9 161.7 C 89.9 164.8 92.4 167.4 95.6 167.4 C 98.7 167.4 101.3 164.9 101.3 161.7 C 101.3 158.6 98.8 156 95.6 156 Z"
        fill="#00aebd"/>
</svg>
