<svg
    xmlns="http://www.w3.org/2000/svg"
    viewBox="0 0 313 313"
    id="vector">
    <path
        id="path"
        d="M 157.2 64.1 C 176.3 64.1 194.5 72.3 207.1 86.6 L 211.1 91.1 L 217.2 90.5 C 219 90.3 220.6 90.3 222.2 90.3 C 251.8 90.3 275.8 114.4 275.8 143.9 C 275.8 173.5 251.7 197.5 222.2 197.5 L 72 197.5 C 53.4 197.5 38.3 182.4 38.3 163.8 C 38.3 145.2 53.4 130.1 72 130.1 C 73.8 130.1 75.6 130.3 77.5 130.5 L 89.4 132.4 L 91.2 120.4 C 93.6 104.8 101.5 90.5 113.5 80.2 C 125.6 69.9 141.1 64.1 157.2 64.1 M 157.2 52.1 C 117.8 52.1 85.2 81 79.4 118.7 C 77 118.3 74.5 118.1 72 118.1 C 46.8 118.1 26.3 138.6 26.3 163.8 C 26.3 189 46.8 209.5 72 209.5 L 222.3 209.5 C 258.5 209.5 287.9 180.1 287.9 143.9 C 287.9 107.7 258.5 78.3 222.3 78.3 C 220.2 78.3 218.2 78.4 216.1 78.6 C 201.7 62.4 180.6 52.1 157.2 52.1 L 157.2 52.1 Z"
        fill="#b6bbbf"/>
    <path
        id="path_1"
        d="M 139.9 287.7 C 138.8 287.7 137.8 287.4 136.8 286.8 C 134 285.1 133 281.4 134.7 278.6 L 158.8 238.4 C 160.5 235.6 164.2 234.6 167 236.3 C 169.8 238 170.8 241.7 169.1 244.5 L 145 284.8 C 143.9 286.6 141.9 287.7 139.9 287.7 Z"
        fill="#00aebd"/>
    <path
        id="path_4"
        d="M 193.2 264.2 C 192.1 264.2 191.1 263.9 190.1 263.3 C 187.3 261.6 186.3 257.9 188 255.1 L 198 238.4 C 199.7 235.6 203.4 234.6 206.2 236.3 C 209 238 210 241.7 208.3 244.5 L 198.3 261.2 C 197.2 263.2 195.3 264.2 193.2 264.2 Z"
        fill="#00aebd"/>
    <path
        id="path_7"
        d="M 179.2 281.7 M 173 281.7 C 173 280.056 173.654 278.478 174.816 277.316 C 175.978 276.154 177.556 275.5 179.2 275.5 C 180.844 275.5 182.422 276.154 183.584 277.316 C 184.746 278.478 185.4 280.056 185.4 281.7 C 185.4 283.344 184.746 284.922 183.584 286.084 C 182.422 287.246 180.844 287.9 179.2 287.9 C 177.556 287.9 175.978 287.246 174.816 286.084 C 173.654 284.922 173 283.344 173 281.7"
        fill="#00aebd"/>
    <path
        id="path_8"
        d="M 114.7 264.2 C 113.6 264.2 112.6 263.9 111.6 263.3 C 108.8 261.6 107.8 257.9 109.5 255.1 L 119.5 238.4 C 121.2 235.6 124.9 234.6 127.7 236.3 C 130.5 238 131.5 241.7 129.8 244.5 L 119.8 261.2 C 118.8 263.2 116.8 264.2 114.7 264.2 Z"
        fill="#00aebd"/>
    <path
        id="path_9"
        d="M 100.6 281.7 M 94.4 281.7 C 94.396 280.388 94.808 279.108 95.577 278.046 C 96.346 276.983 97.433 276.191 98.68 275.785 C 99.928 275.379 101.272 275.379 102.52 275.785 C 103.767 276.191 104.854 276.983 105.623 278.046 C 106.392 279.108 106.804 280.388 106.8 281.7 C 106.804 283.012 106.392 284.292 105.623 285.354 C 104.854 286.417 103.767 287.209 102.52 287.615 C 101.272 288.021 99.928 288.021 98.68 287.615 C 97.433 287.209 96.346 286.417 95.577 285.354 C 94.808 284.292 94.396 283.012 94.4 281.7"
        fill="#00aebd"/>
    <path
        id="path_10"
        d="M 139.9 287.7 C 138.8 287.7 137.8 287.4 136.8 286.8 C 134 285.1 133 281.4 134.7 278.6 L 158.8 238.4 C 160.5 235.6 164.2 234.6 167 236.3 C 169.8 238 170.8 241.7 169.1 244.5 L 145 284.8 C 143.9 286.6 141.9 287.7 139.9 287.7 Z"
        fill="#00aebd"/>
    <path
        id="path_11"
        d="M 124.1 307.5 M 117.9 307.5 C 117.9 306.191 118.315 304.915 119.084 303.856 C 119.854 302.797 120.939 302.008 122.184 301.603 C 123.429 301.199 124.771 301.199 126.016 301.603 C 127.261 302.008 128.346 302.797 129.116 303.856 C 129.885 304.915 130.3 306.191 130.3 307.5 C 130.3 309.144 129.646 310.722 128.484 311.884 C 127.322 313.046 125.744 313.7 124.1 313.7 C 122.456 313.7 120.878 313.046 119.716 311.884 C 118.554 310.722 117.9 309.144 117.9 307.5"
        fill="#00aebd"/>
</svg>
