<svg
    xmlns="http://www.w3.org/2000/svg"
    viewBox="0 0 313 313"
    id="vector">
    <path
        id="path_2"
        d="M 157.2 64.1 C 176.3 64.1 194.5 72.3 207.1 86.6 L 211.1 91.1 L 217.2 90.5 C 219 90.3 220.6 90.3 222.2 90.3 C 251.8 90.3 275.8 114.4 275.8 143.9 C 275.8 173.5 251.7 197.5 222.2 197.5 L 72 197.5 C 53.4 197.5 38.3 182.4 38.3 163.8 C 38.3 145.2 53.4 130.1 72 130.1 C 73.8 130.1 75.6 130.3 77.5 130.5 L 89.4 132.4 L 91.2 120.4 C 93.6 104.8 101.5 90.5 113.5 80.2 C 125.6 69.9 141.1 64.1 157.2 64.1 M 157.2 52.1 C 117.8 52.1 85.2 81 79.4 118.7 C 77 118.3 74.5 118.1 72 118.1 C 46.8 118.1 26.3 138.6 26.3 163.8 C 26.3 189 46.8 209.5 72 209.5 L 222.3 209.5 C 258.5 209.5 287.9 180.1 287.9 143.9 C 287.9 107.7 258.5 78.3 222.3 78.3 C 220.2 78.3 218.2 78.4 216.1 78.6 C 201.7 62.4 180.6 52.1 157.2 52.1 L 157.2 52.1 Z"
        fill="#b6bbbf"/>
    <path
        id="path_3"
        d="M 235.1 286.1 L 215.3 274.7 L 235 263.3 C 237.9 261.6 238.8 258 237.2 255.1 C 235.5 252.2 231.9 251.3 229 252.9 L 209.3 264.3 L 209.3 241.5 C 209.3 238.2 206.6 235.5 203.3 235.5 C 203.3 235.5 203.3 235.5 203.3 235.5 C 200 235.5 197.3 238.2 197.3 241.5 L 197.3 264.3 L 177.5 253 C 174.6 251.3 171 252.3 169.3 255.2 C 167.6 258.1 168.6 261.7 171.5 263.4 L 191.3 274.8 L 171.6 286.2 C 168.7 287.9 167.8 291.5 169.4 294.4 C 170.5 296.3 172.5 297.4 174.6 297.4 C 175.6 297.4 176.7 297.1 177.6 296.6 L 197.3 285.2 L 197.3 308 C 197.3 311.3 200 314 203.3 314 C 203.3 314 203.3 314 203.3 314 C 206.6 314 209.3 311.3 209.3 308 L 209.3 285.2 L 229.1 296.6 C 230 297.1 231.1 297.4 232.1 297.4 C 234.2 297.4 236.2 296.3 237.3 294.4 C 238.9 291.4 237.9 287.7 235.1 286.1 Z"
        fill="#00aebd"/>
    <path
        id="path_5"
        d="M 98.2 313.9 C 97.1 313.9 96.1 313.6 95.1 313 C 92.3 311.3 91.3 307.6 93 304.8 L 132.9 238.4 C 134.6 235.6 138.3 234.6 141.1 236.3 C 143.9 238 144.9 241.7 143.2 244.5 L 103.3 311 C 102.2 312.9 100.2 313.9 98.2 313.9 Z"
        fill="#00aebd"/>
    <path
        id="path_6"
        d="M 73.9 287.7 C 72.8 287.7 71.8 287.4 70.8 286.8 C 68 285.1 67 281.4 68.7 278.6 L 92.8 238.4 C 94.5 235.6 98.2 234.6 101 236.3 C 103.8 238 104.8 241.7 103.1 244.5 L 79 284.8 C 77.9 286.7 75.9 287.7 73.9 287.7 Z"
        fill="#00aebd"/>
</svg>
