<svg
    xmlns="http://www.w3.org/2000/svg"
    viewBox="0 0 313 313"
    id="vector">
    <path
        id="path_4"
        d="M 157.2 53.3 C 153.9 53.3 151.2 50.6 151.2 47.3 L 151.2 5.9 C 151.2 2.6 153.9 -0.1 157.2 -0.1 C 160.5 -0.1 163.2 2.6 163.2 5.9 L 163.2 47.3 C 163.2 50.6 160.5 53.3 157.2 53.3 Z"
        fill="#ff9838"/>
    <path
        id="path_5"
        d="M 79.7 85.4 C 78.2 85.4 76.6 84.8 75.5 83.6 L 46.2 54.4 C 43.9 52.1 43.9 48.3 46.2 45.9 C 48.5 43.6 52.3 43.6 54.7 45.9 L 84 75.2 C 86.3 77.5 86.3 81.3 84 83.7 C 82.8 84.8 81.2 85.4 79.7 85.4 Z"
        fill="#ff9838"/>
    <path
        id="path_6"
        d="M 47.6 162.9 L 6.2 162.9 C 2.9 162.9 0.2 160.2 0.2 156.9 C 0.2 153.6 2.9 150.9 6.2 150.9 L 47.6 150.9 C 50.9 150.9 53.6 153.6 53.6 156.9 C 53.6 160.2 50.9 162.9 47.6 162.9 Z"
        fill="#ff9838"/>
    <path
        id="path_7"
        d="M 50.4 269.6 C 48.9 269.6 47.3 269 46.2 267.8 C 43.9 265.5 43.9 261.7 46.2 259.3 L 75.5 230 C 77.8 227.7 81.6 227.7 84 230 C 86.3 232.3 86.3 236.1 84 238.5 L 54.7 267.8 C 53.5 269 52 269.6 50.4 269.6 Z"
        fill="#ff9838"/>
    <path
        id="path_8"
        d="M 235.3 84.7 C 233.8 84.7 232.2 84.1 231.1 82.9 C 228.8 80.6 228.8 76.8 231.1 74.4 L 259.7 45.8 C 262 43.5 265.8 43.5 268.2 45.8 C 270.5 48.1 270.5 51.9 268.2 54.3 L 239.6 83 C 238.4 84.1 236.9 84.7 235.3 84.7 Z"
        fill="#ff9838"/>
    <path
        id="path_9"
        d="M 110.7 225.1 C 110.7 223.9 110.8 222.8 110.9 221.7 C 91 207.3 78.1 183.9 78.1 157.5 C 78.1 113.8 113.7 78.2 157.4 78.2 C 198.1 78.2 231.7 109 236.2 148.4 C 240.7 150.8 245 153.9 248.7 157.5 C 248.7 107.1 207.8 66.2 157.4 66.2 C 107 66.2 66.1 107.1 66.1 157.5 C 66.1 191.9 85.2 221.9 113.3 237.5 C 111.7 233.7 110.7 229.5 110.7 225.1 Z"
        fill="#ff9838"/>
    <path
        id="path_10"
        d="M 209.5 147.7 C 224.1 147.7 238 154 247.7 164.9 L 251.7 169.4 L 257.8 168.8 C 259.1 168.7 260.4 168.6 261.6 168.6 C 283.9 168.6 302.1 186.8 302.1 209.1 C 302.1 231.4 283.9 249.6 261.6 249.6 L 141.3 249.6 C 127.7 249.6 116.7 238.6 116.7 225 C 116.7 211.4 127.7 200.4 141.3 200.4 C 142.6 200.4 143.9 200.5 145.3 200.7 L 157.2 202.6 L 159 190.6 C 160.8 178.7 166.9 167.8 176.1 159.9 C 185.4 152.1 197.2 147.7 209.5 147.7 M 209.5 135.7 C 178 135.7 151.9 158.8 147.3 189 C 145.4 188.7 143.4 188.5 141.4 188.5 C 121.2 188.5 104.8 204.9 104.8 225.1 C 104.8 245.3 121.2 261.7 141.4 261.7 L 261.6 261.7 C 290.6 261.7 314.1 238.2 314.1 209.2 C 314.1 180.2 290.6 156.7 261.6 156.7 C 259.9 156.7 258.3 156.8 256.7 156.9 C 245.1 143.9 228.2 135.7 209.5 135.7 L 209.5 135.7 Z"
        fill="#b6bbbf"/>
</svg>
