<svg
    xmlns="http://www.w3.org/2000/svg"
    viewBox="0 0 313 313"
    id="vector">
    <path
        id="path"
        d="M 163 216.4 L 163 49 C 163 45.7 160.3 43 157 43 C 153.7 43 151 45.7 151 49 L 151 216.4 C 139.4 219.1 130.8 229.5 130.8 241.9 C 130.8 256.3 142.5 268.1 157 268.1 C 171.4 268.1 183.2 256.4 183.2 241.9 C 183.1 229.5 174.5 219.2 163 216.4 Z M 156.9 256 C 149.1 256 142.7 249.6 142.7 241.8 C 142.7 234 149.1 227.6 156.9 227.6 C 164.7 227.6 171.1 234 171.1 241.8 C 171.1 249.7 164.7 256 156.9 256 Z"
        fill="#ff9838"/>
    <path
        id="path_1"
        d="M 189 192.5 L 189 136.8 L 203 136.8 C 206.3 136.8 209 134.1 209 130.8 C 209 127.5 206.3 124.8 203 124.8 L 189 124.8 L 189 97.6 L 203 97.6 C 206.3 97.6 209 94.9 209 91.6 C 209 88.3 206.3 85.6 203 85.6 L 189 85.6 L 189 58.4 L 203 58.4 C 206.3 58.4 209 55.7 209 52.4 C 209 49.1 206.3 46.4 203 46.4 L 189 46.4 L 189 46 C 189 28.3 174.7 14 157 14 C 139.3 14 125 28.3 125 46 L 125 192.6 C 108.8 203 98 221.2 98 242 C 98 274.5 124.4 300.9 156.9 300.9 C 189.4 300.9 215.8 274.5 215.8 242 C 215.9 221.2 205.2 203 189 192.5 Z M 157 288.9 C 131.1 288.9 110.1 267.9 110.1 242 C 110.1 226.1 118.1 211.3 131.5 202.6 L 137 199.1 L 137 192.6 L 137 46 C 137 35 146 26 157 26 C 168 26 177 35 177 46 L 177 192.6 L 177 199.1 L 182.5 202.6 C 195.9 211.3 203.9 226 203.9 242 C 203.9 267.8 182.8 288.9 157 288.9 Z"
        fill="#888a8c"/>
</svg>
