<svg
    xmlns="http://www.w3.org/2000/svg"
    viewBox="0 0 313 313"
    id="vector">
    <path
        id="path_2"
        d="M 163.2 216.4 L 163.2 189.2 C 163.2 185.9 160.5 183.2 157.2 183.2 C 153.9 183.2 151.2 185.9 151.2 189.2 L 151.2 216.4 C 139.6 219.1 131 229.5 131 241.9 C 131 256.3 142.7 268.1 157.2 268.1 C 171.7 268.1 183.4 256.4 183.4 241.9 C 183.3 229.5 174.7 219.2 163.2 216.4 Z M 157.1 256 C 149.3 256 142.9 249.6 142.9 241.8 C 142.9 234 149.3 227.6 157.1 227.6 C 164.9 227.6 171.3 234 171.3 241.8 C 171.3 249.7 164.9 256 157.1 256 Z"
        fill="#00aebd"/>
    <path
        id="path_3"
        d="M 189.2 192.5 L 189.2 136.8 L 203 136.8 C 206.3 136.8 209 134.1 209 130.8 C 209 127.5 206.3 124.8 203 124.8 L 189.2 124.8 L 189.2 97.6 L 203 97.6 C 206.3 97.6 209 94.9 209 91.6 C 209 88.3 206.3 85.6 203 85.6 L 189.2 85.6 L 189.2 58.4 L 203 58.4 C 206.3 58.4 209 55.7 209 52.4 C 209 49.1 206.3 46.4 203 46.4 L 189.2 46.4 L 189.2 46 C 189.2 28.3 174.9 14 157.2 14 C 139.5 14 125.2 28.3 125.2 46 L 125.2 192.6 C 109 203 98.3 221.2 98.3 242 C 98.3 274.5 124.7 300.9 157.2 300.9 C 189.7 300.9 216.1 274.5 216.1 242 C 216.1 221.2 205.4 203 189.2 192.5 Z M 157.2 288.9 C 131.3 288.9 110.3 267.9 110.3 242 C 110.3 226.1 118.3 211.3 131.7 202.6 L 137.2 199.1 L 137.2 192.6 L 137.2 46 C 137.2 35 146.2 26 157.2 26 C 168.2 26 177.2 35 177.2 46 L 177.2 192.6 L 177.2 199.1 L 182.7 202.6 C 196.1 211.3 204.1 226 204.1 242 C 204.1 267.8 183 288.9 157.2 288.9 Z"
        fill="#888a8c"/>
</svg>
