<svg
    xmlns="http://www.w3.org/2000/svg"
    viewBox="0 0 313 313"
    id="vector">
    <path
        id="path"
        d="M 236.1 241.5 C 232.8 241.5 230.1 238.8 230.1 235.5 C 230.1 217.2 215.2 202.3 196.9 202.3 L 6 202.3 C 2.7 202.3 0 199.6 0 196.3 C 0 193 2.7 190.3 6 190.3 L 196.9 190.3 C 221.8 190.3 242.1 210.6 242.1 235.5 C 242.1 238.8 239.4 241.5 236.1 241.5 Z"
        fill="#b6bbbf"/>
    <path
        id="path_1"
        d="M 151 123.8 L 6 123.8 C 2.7 123.8 0 121.1 0 117.8 C 0 114.5 2.7 111.8 6 111.8 L 151 111.8 C 169.3 111.8 184.2 96.9 184.2 78.6 C 184.2 60.3 169.3 45.4 151 45.4 C 132.7 45.4 117.8 60.3 117.8 78.6 C 117.8 81.9 115.1 84.6 111.8 84.6 C 108.5 84.6 105.8 81.9 105.8 78.6 C 105.8 53.7 126.1 33.4 151 33.4 C 175.9 33.4 196.2 53.7 196.2 78.6 C 196.2 103.5 175.9 123.8 151 123.8 Z"
        fill="#b6bbbf"/>
    <path
        id="path_4"
        d="M 268.9 163 L 84.6 163 C 81.3 163 78.6 160.3 78.6 157 C 78.6 153.7 81.3 151 84.6 151 L 268.9 151 C 287.2 151 302.1 136.1 302.1 117.8 C 302.1 99.5 287.2 84.6 268.9 84.6 C 250.6 84.6 235.7 99.5 235.7 117.8 C 235.7 121.1 233 123.8 229.7 123.8 C 226.4 123.8 223.7 121.1 223.7 117.8 C 223.7 92.9 244 72.6 268.9 72.6 C 293.8 72.6 314.1 92.9 314.1 117.8 C 314.2 142.7 293.9 163 268.9 163 Z"
        fill="#b6bbbf"/>
</svg>
