<svg
    xmlns="http://www.w3.org/2000/svg"
    viewBox="0 0 313 313"
    id="vector">
    <path
        id="path_2"
        d="M 117.1 45.3 C 97.7 87.1 99.6 136 123 176.4 C 135.7 198.5 154.1 216.7 176.2 229.2 C 193.9 239.2 213.5 245.3 233.6 247.1 C 228.1 251.7 222.3 255.9 216 259.5 C 198 269.9 177.6 275.4 156.9 275.4 C 136.3 275.4 116 270 98.1 259.9 C 79.7 249.4 64.4 234.1 53.8 215.6 C 46.1 202.1 41.3 187.2 39.5 171.6 C 37.8 156.3 39 141 43 126.1 C 47 111.2 53.7 97.4 62.9 85.2 C 72.3 72.6 84 62.2 97.5 54.4 C 103.7 50.8 110.3 47.7 117.1 45.3 M 130.5 29.2 C 130.1 29.2 129.7 29.2 129.3 29.3 C 116.3 32.1 103.5 36.9 91.3 44 C 30.3 79.3 8.4 160.1 43.3 221.4 C 67.4 263.7 111.4 287.3 156.8 287.3 C 178.9 287.3 201.3 281.7 221.9 269.8 C 234 262.8 244.6 254.2 253.5 244.3 C 256.6 240.9 254.1 235.5 249.6 235.5 C 249.6 235.5 249.5 235.5 249.5 235.5 C 248.5 235.5 247.4 235.5 246.4 235.5 C 201.3 235.5 157.5 212.1 133.3 170.3 C 108.6 127.5 110.9 76.5 134.9 37.1 C 137.2 33.6 134.5 29.2 130.5 29.2 L 130.5 29.2 Z"
        fill="#888a8c"/>
</svg>
