<svg
    xmlns="http://www.w3.org/2000/svg"
    viewBox="0 0 313 313"
    id="vector">
    <path
        id="path"
        d="M 31.4 176.4 L 37.4 177.4 L 38.3 171.4 C 38.5 170 38.8 168.6 39.2 167.2 C 38.1 153.4 39.4 139.6 43.1 126 C 47.1 111.1 53.8 97.3 63 85.1 C 72.4 72.5 84.1 62.1 97.6 54.3 C 103.9 50.7 110.5 47.6 117.2 45.2 C 101.5 79.1 99.8 117.7 112.2 152.7 L 114.4 152.5 C 115.5 152.4 116.5 152.3 117.5 152.3 C 120.1 152.3 122.7 152.6 125.2 153.2 C 109.7 114.4 114.2 71.4 135.1 37.1 C 137.3 33.5 134.6 29.1 130.7 29.1 C 130.3 29.1 129.9 29.1 129.5 29.2 C 116.5 32 103.7 36.8 91.5 43.9 C 44.6 71.1 20.8 124.9 28 176.2 C 29.1 176.2 30.2 176.3 31.4 176.4 Z"
        fill="#888a8c"/>
    <path
        id="path_1"
        d="M 249.6 235.6 C 249.6 235.6 249.5 235.6 249.5 235.6 C 248.5 235.6 247.4 235.6 246.4 235.6 C 210.2 235.6 174.7 220.5 149.7 192.8 C 148.7 197.1 146.9 201.1 144.4 204.6 C 153.8 214.2 164.4 222.5 176.2 229.1 C 193.9 239.1 213.5 245.2 233.6 247 C 228.1 251.6 222.3 255.8 216 259.4 C 198 269.8 177.6 275.3 156.9 275.3 C 136.3 275.3 116 269.9 98.1 259.8 C 80.7 249.9 66.1 235.7 55.7 218.6 L 41.8 218.6 C 42.3 219.5 42.8 220.5 43.3 221.4 C 67.4 263.7 111.4 287.3 156.8 287.3 C 178.9 287.3 201.3 281.7 221.9 269.8 C 234 262.8 244.6 254.2 253.5 244.3 C 256.6 241 254.2 235.6 249.6 235.6 Z"
        fill="#888a8c"/>
    <path
        id="path_3"
        d="M 78 142.8 C 88 142.8 97.5 147.1 104.1 154.6 L 108.1 159.2 L 114.2 158.6 C 115.1 158.5 115.9 158.5 116.8 158.5 C 131.7 158.5 143.9 170.6 143.9 185.6 C 143.9 200.5 131.8 212.7 116.8 212.7 L 27.2 212.7 C 18.8 212.7 12 205.9 12 197.5 C 12 189.1 18.8 182.3 27.2 182.3 C 28 182.3 28.8 182.4 29.7 182.5 L 41.6 184.4 L 43.4 172.4 C 44.7 164.3 48.8 156.8 55.1 151.4 C 61.5 145.9 69.6 142.8 78 142.8 M 78 130.8 C 54.6 130.8 35.1 148 31.7 170.5 C 30.3 170.3 28.8 170.1 27.3 170.1 C 12.3 170.1 0.1 182.3 0.1 197.3 C 0.1 212.3 12.3 224.5 27.3 224.5 L 116.8 224.5 C 138.4 224.5 155.9 207 155.9 185.4 C 155.9 163.8 138.4 146.3 116.8 146.3 C 115.6 146.3 114.3 146.4 113.1 146.5 C 104.5 136.9 91.9 130.8 78 130.8 L 78 130.8 Z"
        fill="#b6bbbf"/>
</svg>
