<svg
    xmlns="http://www.w3.org/2000/svg"
    viewBox="0 0 313 313"
    id="vector">
    <path
        id="path_2"
        d="M 249.6 235.6 C 249.6 235.6 249.5 235.6 249.5 235.6 C 248.5 235.6 247.4 235.6 246.4 235.6 C 201.3 235.6 157.5 212.2 133.3 170.4 C 108.6 127.6 110.9 76.6 134.9 37.2 C 137.1 33.6 134.4 29.2 130.5 29.2 C 130.1 29.2 129.7 29.2 129.3 29.3 C 116.3 32.1 103.5 36.9 91.3 44 C 30.3 79.3 8.4 160.1 43.3 221.4 C 56.7 245 76.3 262.7 98.9 273.8 L 138 273.8 C 124 271.6 110.4 266.8 98 259.8 C 79.6 249.3 64.3 234 53.7 215.5 C 46 202 41.2 187.1 39.4 171.5 C 37.8 156.3 39 141 43 126.1 C 47 111.2 53.7 97.4 62.9 85.2 C 72.3 72.6 84 62.2 97.5 54.4 C 103.8 50.8 110.4 47.7 117.1 45.3 C 97.7 87.1 99.6 136 123 176.4 C 135.7 198.5 154.1 216.7 176.2 229.2 C 193.9 239.2 213.5 245.3 233.6 247.1 C 228.1 251.7 222.3 255.9 216 259.5 C 203.4 266.8 189.7 271.6 175.5 273.9 L 214.5 273.9 C 217 272.7 219.5 271.3 222 269.9 C 234.1 262.9 244.7 254.3 253.6 244.4 C 256.6 241 254.2 235.6 249.6 235.6 Z"
        fill="#888a8c"/>
    <path
        id="path_4"
        d="M 282.2 279.9 L 19.8 279.9 C 16.5 279.9 13.8 277.2 13.8 273.9 C 13.8 270.6 16.5 267.9 19.8 267.9 L 282.2 267.9 C 285.5 267.9 288.2 270.6 288.2 273.9 C 288.2 277.2 285.5 279.9 282.2 279.9 Z"
        fill="#b6bbbf"/>
    <path
        id="path_5"
        d="M 282.2 202.2 L 78.6 202.2 C 75.3 202.2 72.6 199.5 72.6 196.2 C 72.6 192.9 75.3 190.2 78.6 190.2 L 282.2 190.2 C 285.5 190.2 288.2 192.9 288.2 196.2 C 288.2 199.5 285.5 202.2 282.2 202.2 Z"
        fill="#b6bbbf"/>
    <path
        id="path_6"
        d="M 130.9 241.5 L 19.8 241.5 C 16.5 241.5 13.8 238.8 13.8 235.5 C 13.8 232.2 16.5 229.5 19.8 229.5 L 130.9 229.5 C 134.2 229.5 136.9 232.2 136.9 235.5 C 136.9 238.8 134.2 241.5 130.9 241.5 Z"
        fill="#b6bbbf"/>
</svg>
