<svg
    xmlns="http://www.w3.org/2000/svg"
    viewBox="0 0 313 313"
    id="vector">
    <path
        id="path"
        d="M 235.7 137.7 C 237.8 137.4 240 137.2 242.1 137.2 C 251 137.2 259.2 140.1 265.8 145 C 275.3 143.8 284.6 140.8 293.4 135.7 C 300.2 131.8 306.2 126.9 311.2 121.3 C 312.9 119.4 311.6 116.4 309 116.4 C 309 116.4 308.9 116.4 308.9 116.4 C 308.3 116.4 307.7 116.4 307.2 116.4 C 281.8 116.4 257.1 103.2 243.5 79.6 C 229.6 55.5 230.9 26.8 244.4 4.5 C 245.6 2.5 244.1 0 241.9 0 C 241.7 0 241.5 0 241.2 0.1 C 233.9 1.7 226.7 4.4 219.8 8.4 C 195.5 22.5 182.2 49.4 183.5 76.1 C 187.9 77.8 192.2 80 196.2 82.6 C 192.2 58.3 203.1 32.5 224.9 19.3 C 218.6 41.3 221.3 65.2 233.1 85.6 C 240.7 98.8 251.8 109.8 265 117.3 C 271.7 121.1 279 124 286.4 125.8 C 277.3 130.8 267 133.5 256.7 133.5 L 237.2 137.4 L 235.7 137.7 Z"
        fill="#888a8c"/>
    <path
        id="path_1"
        d="M 157 77.2 C 173 77.2 188.5 83 200.6 93.4 C 212.6 103.8 220.5 118.1 222.9 133.6 L 224.7 145.6 L 236.6 143.7 C 238.4 143.4 240.3 143.3 242.1 143.3 C 260.7 143.3 275.8 158.4 275.8 177 C 275.8 195.6 260.7 210.7 242.1 210.7 L 91.9 210.7 C 62.3 210.7 38.3 186.6 38.3 157.1 C 38.3 127.5 62.4 103.5 91.9 103.5 C 93.5 103.5 95.2 103.6 96.9 103.7 L 103 104.3 L 107 99.7 C 119.7 85.4 137.9 77.2 157 77.2 M 157 65.2 C 133.6 65.2 112.5 75.5 98.1 91.7 C 96.1 91.5 94 91.4 91.9 91.4 C 55.7 91.4 26.3 120.8 26.3 157 C 26.3 193.2 55.7 222.6 91.9 222.6 L 242.2 222.6 C 267.4 222.6 287.9 202.1 287.9 176.9 C 287.9 151.7 267.4 131.2 242.2 131.2 C 239.7 131.2 237.2 131.4 234.8 131.8 C 228.9 94.1 196.3 65.2 157 65.2 L 157 65.2 Z"
        fill="#b6bbbf"/>
</svg>
