<svg
    xmlns="http://www.w3.org/2000/svg"
    viewBox="0 0 313 313"
    id="vector">
    <path
        id="path_2"
        d="M 91.4 104.1 C 91.9 101.6 92.5 99 93.2 96.5 C 97.2 81.6 103.9 67.8 113.1 55.6 C 122.5 43 134.2 32.6 147.7 24.8 C 154 21.2 160.5 18.1 167.3 15.7 C 151.5 49.8 149.9 88.7 162.5 123.8 C 167.7 124.4 172.6 125.9 177.1 128 C 159.5 88.1 163.5 43.2 185.2 7.6 C 187.4 4 184.7 -0.4 180.8 -0.4 C 180.4 -0.4 180 -0.4 179.6 -0.3 C 166.6 2.5 153.8 7.3 141.6 14.4 C 106.2 34.8 84 70.6 78.3 109 C 82.4 106.8 86.8 105.2 91.4 104.1 Z"
        fill="#888a8c"/>
    <path
        id="path_3"
        d="M 299.8 205.9 C 299.8 205.9 299.7 205.9 299.7 205.9 C 298.7 205.9 297.6 205.9 296.6 205.9 C 262 205.9 228.1 192.1 203.3 166.8 C 203.4 167.8 203.4 168.8 203.4 169.8 C 203.4 174 202.8 178 201.8 181.9 C 209.3 188.6 217.5 194.5 226.3 199.4 C 244 209.4 263.6 215.5 283.7 217.3 C 278.2 221.9 272.4 226.1 266.1 229.7 C 248.1 240.1 227.7 245.6 207 245.6 C 186.4 245.6 166.1 240.2 148.2 230.1 C 141.3 226.2 134.8 221.6 128.9 216.3 L 111.7 216.3 C 136.7 243 171.5 257.6 207 257.6 C 229.1 257.6 251.5 252 272.1 240.1 C 284.2 233.1 294.8 224.5 303.7 214.6 C 306.7 211.3 304.3 205.9 299.8 205.9 Z"
        fill="#888a8c"/>
    <path
        id="path_4"
        d="M 104.7 108.4 C 119.3 108.4 133.2 114.7 142.9 125.6 L 146.9 130.1 L 153 129.5 C 154.3 129.4 155.6 129.3 156.8 129.3 C 179.1 129.3 197.3 147.5 197.3 169.8 C 197.3 192.1 179.1 210.3 156.8 210.3 L 36.6 210.3 C 23 210.3 12 199.3 12 185.7 C 12 172.1 23 161.1 36.6 161.1 C 37.9 161.1 39.2 161.2 40.6 161.4 L 52.5 163.3 L 54.3 151.3 C 56.1 139.4 62.2 128.5 71.4 120.6 C 80.6 112.8 92.5 108.4 104.7 108.4 M 104.7 96.4 C 73.2 96.4 47.1 119.5 42.5 149.7 C 40.6 149.4 38.6 149.2 36.6 149.2 C 16.4 149.2 0 165.6 0 185.8 C 0 206 16.4 222.4 36.6 222.4 L 156.8 222.4 C 185.8 222.4 209.3 198.9 209.3 169.9 C 209.3 140.9 185.8 117.4 156.8 117.4 C 155.1 117.4 153.5 117.5 151.9 117.6 C 140.3 104.6 123.5 96.4 104.7 96.4 L 104.7 96.4 Z"
        fill="#b6bbbf"/>
    <path
        id="path_5"
        d="M 58.2 313.9 C 57.1 313.9 56.1 313.6 55.1 313 C 52.3 311.3 51.3 307.6 53 304.8 L 93 238.4 C 94.7 235.6 98.4 234.6 101.2 236.3 C 104 238 105 241.7 103.3 244.5 L 63.4 311 C 62.2 312.9 60.3 313.9 58.2 313.9 Z"
        fill="#00aebd"/>
    <path
        id="path_6"
        d="M 34.7 287.7 C 33.6 287.7 32.6 287.4 31.6 286.8 C 28.8 285.1 27.8 281.4 29.5 278.6 L 53.6 238.4 C 55.3 235.6 59 234.6 61.8 236.3 C 64.6 238 65.6 241.7 63.9 244.5 L 39.8 284.7 C 38.8 286.6 36.8 287.7 34.7 287.7 Z"
        fill="#00aebd"/>
    <path
        id="path_7"
        d="M 111.8 287.7 C 110.7 287.7 109.7 287.4 108.7 286.8 C 105.9 285.1 104.9 281.4 106.6 278.6 L 122.7 251.8 C 124.4 249 128.1 248 130.9 249.7 C 133.7 251.4 134.7 255.1 133 257.9 L 116.9 284.7 C 115.8 286.6 113.8 287.7 111.8 287.7 Z"
        fill="#00aebd"/>
</svg>
