<svg
    xmlns="http://www.w3.org/2000/svg"
    viewBox="0 0 320 320"
    id="vector">
    <path
        id="path"
        d="M 52.9 237 C 62.4 237 70.6 244.1 72.1 253.4 L 73.9 265.4 L 85.8 263.5 C 86.1 263.4 86.5 263.4 86.8 263.4 C 90.2 263.4 93 266.2 93 269.6 C 93 273 90.2 275.8 86.8 275.8 L 26.9 275.8 C 19.1 275.8 12.7 269.4 12.7 261.6 C 12.7 253.8 19.1 247.4 26.9 247.4 C 27.3 247.4 27.8 247.4 28.2 247.5 L 34.3 248.1 L 38.3 243.6 C 42 239.4 47.3 237 52.9 237 M 52.9 225 C 43.6 225 35.2 229.1 29.4 235.6 C 28.6 235.5 27.8 235.5 26.9 235.5 C 12.4 235.5 0.7 247.2 0.7 261.7 C 0.7 276.2 12.4 287.9 26.9 287.9 L 86.8 287.9 C 96.9 287.9 105 279.7 105 269.7 C 105 259.7 96.8 251.5 86.8 251.5 C 85.8 251.5 84.8 251.6 83.9 251.7 C 81.6 236.5 68.6 225 52.9 225 L 52.9 225 Z"
        fill="#bfb29b"/>
    <path
        id="path_1"
        d="M 157.2 53.3 C 153.9 53.3 151.2 50.6 151.2 47.3 L 151.2 5.9 C 151.2 2.6 153.9 -0.1 157.2 -0.1 C 160.5 -0.1 163.2 2.6 163.2 5.9 L 163.2 47.3 C 163.2 50.6 160.5 53.3 157.2 53.3 Z"
        fill="#bfb29b"/>
    <path
        id="path_2"
        d="M 157.2 313.8 C 153.9 313.8 151.2 311.1 151.2 307.8 L 151.2 267.4 C 151.2 264.1 153.9 261.4 157.2 261.4 C 160.5 261.4 163.2 264.1 163.2 267.4 L 163.2 307.8 C 163.2 311.1 160.5 313.8 157.2 313.8 Z"
        fill="#bfb29b"/>
    <path
        id="path_3"
        d="M 79.7 85.4 C 78.2 85.4 76.6 84.8 75.5 83.6 L 46.2 54.4 C 43.9 52.1 43.9 48.3 46.2 45.9 C 48.5 43.6 52.3 43.6 54.7 45.9 L 84 75.2 C 86.3 77.5 86.3 81.3 84 83.7 C 82.8 84.8 81.2 85.4 79.7 85.4 Z"
        fill="#bfb29b"/>
    <path
        id="path_11"
        d="M 263.9 269.6 C 262.4 269.6 260.8 269 259.7 267.8 L 231.1 239.2 C 228.8 236.9 228.8 233.1 231.1 230.7 C 233.4 228.4 237.2 228.4 239.6 230.7 L 268.2 259.3 C 270.5 261.6 270.5 265.4 268.2 267.8 C 267 269 265.4 269.6 263.9 269.6 Z"
        fill="#bfb29b"/>
    <path
        id="path_12"
        d="M 47.6 162.9 L 6.2 162.9 C 2.9 162.9 0.2 160.2 0.2 156.9 C 0.2 153.6 2.9 150.9 6.2 150.9 L 47.6 150.9 C 50.9 150.9 53.6 153.6 53.6 156.9 C 53.6 160.2 50.9 162.9 47.6 162.9 Z"
        fill="#bfb29b"/>
    <path
        id="path_13"
        d="M 235.3 84.7 C 233.8 84.7 232.2 84.1 231.1 82.9 C 228.8 80.6 228.8 76.8 231.1 74.4 L 259.7 45.8 C 262 43.5 265.8 43.5 268.2 45.8 C 270.5 48.1 270.5 51.9 268.2 54.3 L 239.6 83 C 238.4 84.1 236.9 84.7 235.3 84.7 Z"
        fill="#bfb29b"/>
    <path
        id="path_14"
        d="M 222.1 203.3 C 207.7 223.5 184.1 236.8 157.4 236.8 C 113.7 236.8 78.1 201.2 78.1 157.5 C 78.1 113.8 113.7 78.2 157.4 78.2 C 188.5 78.2 215.5 96.2 228.5 122.3 C 231 121.8 233.6 121.6 236.2 121.6 C 238 121.6 239.8 121.7 241.6 122 C 227.7 89.2 195.3 66.2 157.5 66.2 C 107.1 66.2 66.2 107.1 66.2 157.5 C 66.2 207.9 107.1 248.8 157.5 248.8 C 191.2 248.8 220.7 230.5 236.5 203.3 L 222.1 203.3 Z"
        fill="#bfb29b"/>
    <path
        id="path_15"
        d="M 236.2 127.5 C 246.2 127.5 255.7 131.8 262.3 139.3 L 266.3 143.8 L 272.4 143.2 C 273.3 143.1 274.1 143.1 275 143.1 C 289.9 143.1 302.1 155.2 302.1 170.2 C 302.1 185.1 290 197.3 275 197.3 L 185.5 197.3 C 177.1 197.3 170.3 190.5 170.3 182.1 C 170.3 173.7 177.1 166.9 185.5 166.9 C 186.3 166.9 187.1 167 188 167.1 L 199.9 169 L 201.7 157 C 203 148.9 207.1 141.4 213.4 136 C 219.7 130.5 227.8 127.5 236.2 127.5 M 236.2 115.5 C 212.8 115.5 193.3 132.7 189.9 155.2 C 188.5 155 187 154.8 185.5 154.8 C 170.5 154.8 158.3 167 158.3 182 C 158.3 197 170.5 209.2 185.5 209.2 L 275 209.2 C 296.6 209.2 314.1 191.7 314.1 170.1 C 314.1 148.5 296.6 131 275 131 C 273.8 131 272.5 131.1 271.3 131.2 C 262.7 121.6 250.2 115.5 236.2 115.5 L 236.2 115.5 Z"
        fill="#bfb29b"/>
</svg>
