<svg
    xmlns="http://www.w3.org/2000/svg"
    viewBox="0 0 313 313"
    id="vector">
    <path
        id="path"
        d="M 309.3 104.9 C 309.3 104.9 309.3 104.9 309.3 104.9 C 308.7 104.9 308.2 104.9 307.7 104.9 C 284.8 104.9 262.6 93 250.3 71.8 C 237.8 50.1 238.9 24.2 251.1 4.2 C 252.2 2.4 250.9 0.1 248.9 0.1 C 248.7 0.1 248.5 0.1 248.3 0.2 C 241.7 1.6 235.2 4.1 229 7.6 C 206.8 20.5 194.8 45.2 196.3 69.7 C 199.1 71.5 201.9 73.6 204.5 75.8 C 206.7 77.7 208.8 79.8 210.8 82 C 203.6 59.6 211.9 33.7 231.7 20.2 C 227 39.5 229.7 60.1 240 77.8 C 250.2 95.4 266.8 108.2 285.8 113.7 C 278.5 117.2 270.4 119.1 262.3 119.1 C 258.9 119.1 255.4 118.8 252 118.1 C 250.8 117.9 249.5 117.7 248 117.7 C 243.3 117.7 237.9 119 232.1 120.5 C 231.1 120.7 230.1 121 229.1 121.2 L 229.8 125.6 L 235.8 124.6 C 237.9 124.3 240.1 124.1 242.2 124.1 C 250.5 124.1 258.2 126.7 264.6 131 C 275.1 130.6 285.6 127.8 295.3 122.2 C 301.4 118.7 306.8 114.3 311.3 109.3 C 312.9 107.6 311.6 104.9 309.3 104.9 Z"
        fill="#888a8c"/>
    <path
        id="path_1"
        d="M 157 64.1 C 173 64.1 188.5 69.9 200.6 80.3 C 212.6 90.7 220.5 105 222.9 120.5 L 224.7 132.5 L 236.6 130.6 C 238.4 130.3 240.3 130.2 242.1 130.2 C 260.7 130.2 275.8 145.3 275.8 163.9 C 275.8 182.5 260.7 197.6 242.1 197.6 L 91.9 197.6 C 62.3 197.6 38.3 173.5 38.3 144 C 38.3 114.4 62.4 90.4 91.9 90.4 C 93.5 90.4 95.2 90.5 96.9 90.6 L 103 91.2 L 107 86.6 C 119.7 72.3 137.9 64.1 157 64.1 M 157 52.1 C 133.6 52.1 112.5 62.4 98.1 78.6 C 96.1 78.4 94 78.3 91.9 78.3 C 55.7 78.3 26.3 107.7 26.3 143.9 C 26.3 180.1 55.7 209.5 91.9 209.5 L 242.2 209.5 C 267.4 209.5 287.9 189 287.9 163.8 C 287.9 138.6 267.4 118.1 242.2 118.1 C 239.7 118.1 237.2 118.3 234.8 118.7 C 228.9 81 196.3 52.1 157 52.1 L 157 52.1 Z"
        fill="#b6bbbf"/>
    <path
        id="path_8"
        d="M 179.1 287.7 C 178 287.7 177 287.4 176 286.8 C 173.2 285.1 172.2 281.4 173.9 278.6 L 198 238.4 C 199.7 235.6 203.4 234.6 206.2 236.3 C 209 238 210 241.7 208.3 244.5 L 184.2 284.7 C 183.1 286.6 181.1 287.7 179.1 287.7 Z"
        fill="#00aebd"/>
    <path
        id="path_9"
        d="M 124.1 313.9 C 123 313.9 122 313.6 121 313 C 118.2 311.3 117.2 307.6 118.9 304.8 L 158.8 238.4 C 160.5 235.6 164.2 234.6 167 236.3 C 169.8 238 170.8 241.7 169.1 244.5 L 129.3 311 C 128.1 312.9 126.2 313.9 124.1 313.9 Z"
        fill="#00aebd"/>
    <path
        id="path_10"
        d="M 100.6 287.7 C 99.5 287.7 98.5 287.4 97.5 286.8 C 94.7 285.1 93.7 281.4 95.4 278.6 L 119.5 238.4 C 121.2 235.6 124.9 234.6 127.7 236.3 C 130.5 238 131.5 241.7 129.8 244.5 L 105.7 284.7 C 104.7 286.6 102.7 287.7 100.6 287.7 Z"
        fill="#00aebd"/>
</svg>
