<svg
    xmlns="http://www.w3.org/2000/svg"
    viewBox="0 0 313 313"
    id="vector">
    <path
        id="path_2"
        d="M 78.3 108.9 C 84 70.5 106.2 34.8 141.5 14.3 C 153.6 7.3 166.4 2.4 179.5 -0.4 C 179.9 -0.5 180.3 -0.5 180.7 -0.5 C 184.6 -0.5 187.3 3.9 185.1 7.5 C 163.4 43.1 159.4 88.1 177 128 C 172.5 125.8 167.6 124.3 162.4 123.7 C 149.8 88.6 151.4 49.7 167.2 15.6 C 160.4 18 153.9 21.1 147.6 24.7 C 134.1 32.5 122.5 42.9 113 55.5 C 103.9 67.7 97.2 81.5 93.1 96.4 C 92.4 98.9 91.8 101.4 91.3 104 C 86.8 105.1 82.5 106.8 78.3 108.9 Z"
        fill="#888a8c"/>
    <path
        id="path_3"
        d="M 122.1 251 C 121 249.1 119 248 116.9 248 L 87.5 248 L 114.4 203.1 C 116.1 200.3 115.2 196.6 112.3 194.9 C 109.5 193.2 105.8 194.1 104.1 197 L 71.7 250.9 C 70 253.7 70.9 257.4 73.8 259.1 C 74.6 259.6 75.5 259.9 76.4 259.9 C 76.4 259.9 76.4 259.9 76.4 259.9 C 76.6 259.9 76.7 259.9 76.9 259.9 C 76.9 259.9 76.9 259.9 77 259.9 C 77 259.9 77 259.9 77.1 259.9 L 106.4 259.9 L 79.5 304.8 C 77.8 307.6 78.7 311.3 81.6 313 C 82.6 313.6 83.6 313.9 84.7 313.9 C 86.7 313.9 88.7 312.9 89.8 311 L 122.2 257.1 C 123.2 255.2 123.2 252.9 122.1 251 Z"
        fill="#ff9838"/>
    <path
        id="path_4"
        d="M 299.8 205.9 C 299.8 205.9 299.7 205.9 299.7 205.9 C 298.7 205.9 297.6 205.9 296.6 205.9 C 261.9 205.9 228 192.1 203.2 166.7 C 203.3 167.7 203.3 168.8 203.3 169.9 C 203.3 174.1 202.7 178.1 201.7 181.9 C 209.2 188.6 217.4 194.5 226.3 199.5 C 244 209.5 263.6 215.6 283.7 217.4 C 278.2 222 272.4 226.2 266.1 229.8 C 248.1 240.2 227.7 245.7 207 245.7 C 186.4 245.7 166.1 240.3 148.2 230.2 C 141.9 226.6 136 222.5 130.5 217.8 C 129.5 216.9 128.2 216.4 126.8 216.4 L 125.9 216.4 C 125.1 216.4 124.2 216.6 123.5 216.9 L 123.5 216.1 C 123.5 216.1 116.6 213.9 116 216.3 C 115.4 218.4 118.6 223.1 122.1 226.3 C 122.1 226.3 122.2 226.4 122.2 226.4 C 122.3 226.5 122.4 226.6 122.6 226.7 C 122.7 226.8 122.9 226.9 123 227 C 146.7 246.9 176.6 257.6 207.1 257.6 C 229.2 257.6 251.6 252 272.2 240.1 C 284.3 233.1 294.9 224.5 303.8 214.6 C 306.7 211.3 304.3 205.9 299.8 205.9 Z"
        fill="#888a8c"/>
    <path
        id="path_5"
        d="M 156.8 117.4 C 155.1 117.4 153.5 117.5 151.9 117.6 C 140.4 104.6 123.5 96.4 104.8 96.4 C 73.3 96.4 47.2 119.5 42.6 149.7 C 40.7 149.4 38.7 149.2 36.7 149.2 C 16.7 149.2 0.5 165.2 0.1 185.1 C -0.3 205.6 16.9 222.4 37.4 222.4 L 71.4 222.4 C 73.5 222.4 75.5 221.3 76.5 219.5 L 76.5 219.5 C 78.9 215.5 76 210.4 71.4 210.4 L 37.1 210.4 C 23.4 210.4 11.7 199.1 12 185.4 C 12.2 172 23.2 161.2 36.6 161.2 C 37.9 161.2 39.2 161.3 40.6 161.5 L 52.5 163.4 L 54.3 151.4 C 56.1 139.5 62.2 128.6 71.4 120.7 C 80.6 112.7 92.5 108.3 104.7 108.3 C 119.3 108.3 133.2 114.6 142.9 125.5 L 146.9 130.1 L 153 129.5 C 154.3 129.4 155.6 129.3 156.8 129.3 C 179.5 129.3 197.8 148 197.3 170.8 C 196.8 192.9 178.2 210.3 156.1 210.3 L 121.9 210.3 C 119.8 210.3 117.8 211.4 116.8 213.2 L 116.8 213.2 C 114.4 217.2 117.3 222.3 121.9 222.3 L 156 222.3 C 184.8 222.3 208.9 199.5 209.4 170.7 C 209.8 141.4 186.1 117.4 156.8 117.4 Z"
        fill="#b6bbbf"/>
</svg>
