<svg
    xmlns="http://www.w3.org/2000/svg"
    viewBox="0 0 313 313"
    id="vector">
    <path
        id="path"
        d="M 309.3 104.9 C 309.3 104.9 309.3 104.9 309.3 104.9 C 308.7 104.9 308.2 104.9 307.7 104.9 C 284.8 104.9 262.6 93 250.3 71.8 C 237.8 50.1 238.9 24.2 251.1 4.2 C 252.2 2.4 250.9 0.1 248.9 0.1 C 248.7 0.1 248.5 0.1 248.3 0.2 C 241.7 1.6 235.2 4.1 229 7.6 C 206.8 20.5 194.8 45.2 196.3 69.7 C 199.1 71.5 201.9 73.6 204.5 75.8 C 206.7 77.7 208.8 79.8 210.8 82 C 203.6 59.6 211.9 33.7 231.7 20.2 C 227 39.5 229.7 60.1 240 77.8 C 250.2 95.4 266.8 108.2 285.8 113.7 C 278.5 117.2 270.4 119.1 262.3 119.1 C 258.9 119.1 255.4 118.8 252 118.1 C 250.8 117.9 249.5 117.7 248 117.7 C 243.3 117.7 237.9 119 232.1 120.5 C 231.1 120.7 230.1 121 229.1 121.2 L 229.8 125.6 L 235.8 124.6 C 237.9 124.3 240.1 124.1 242.2 124.1 C 250.5 124.1 258.2 126.7 264.6 131 C 275.1 130.6 285.6 127.8 295.3 122.2 C 301.4 118.7 306.8 114.3 311.3 109.3 C 312.9 107.6 311.6 104.9 309.3 104.9 Z"
        fill="#888a8c"/>
    <path
        id="path_1"
        d="M 242.1 118.1 C 239.6 118.1 237.1 118.3 234.7 118.7 C 228.9 81 196.3 52.1 157 52.1 C 133.6 52.1 112.5 62.4 98.1 78.6 C 96.1 78.4 94 78.3 91.9 78.3 C 55.4 78.3 25.8 108.2 26.3 144.8 C 26.8 180.9 56.8 209.5 92.9 209.5 L 130.7 209.5 C 132.8 209.5 134.8 208.4 135.8 206.6 L 135.8 206.6 C 138.2 202.6 135.3 197.5 130.7 197.5 L 92.7 197.5 C 63.3 197.5 38.7 174.1 38.3 144.7 C 37.8 114.8 62 90.3 91.9 90.3 C 93.5 90.3 95.2 90.4 96.9 90.5 L 103 91.1 L 107 86.5 C 119.7 72.2 137.9 64 156.9 64 C 172.9 64 188.4 69.8 200.5 80.2 C 212.5 90.6 220.4 104.9 222.8 120.4 L 224.6 132.4 L 236.5 130.5 C 238.3 130.2 240.2 130.1 242 130.1 C 260.4 130.1 275.4 144.9 275.7 163.2 C 276 182.1 260.2 197.5 241.3 197.5 L 189 197.5 C 186.9 197.5 184.9 198.6 183.9 200.4 L 183.9 200.4 C 181.5 204.4 184.4 209.5 189 209.5 L 241.4 209.5 C 266.5 209.5 287.4 189.6 287.9 164.6 C 288.3 139 267.7 118.1 242.1 118.1 Z"
        fill="#b6bbbf"/>
    <path
        id="path_6"
        d="M 182.2 238.5 C 181.1 236.6 179.1 235.5 177 235.5 L 147.6 235.5 L 182 178.2 C 183.7 175.4 182.8 171.7 179.9 170 C 177.1 168.3 173.4 169.2 171.7 172.1 L 131.8 238.5 C 130.1 241.3 131 245 133.9 246.7 C 134.7 247.2 135.6 247.5 136.5 247.5 C 136.5 247.5 136.5 247.5 136.5 247.5 C 136.7 247.5 136.8 247.5 137 247.5 C 137 247.5 137 247.5 137.1 247.5 C 137.1 247.5 137.1 247.5 137.2 247.5 L 166.5 247.5 L 132 304.8 C 130.3 307.6 131.2 311.3 134.1 313 C 135.1 313.6 136.1 313.9 137.2 313.9 C 139.2 313.9 141.2 312.9 142.3 311 L 182.2 244.6 C 183.3 242.7 183.3 240.4 182.2 238.5 Z"
        fill="#ff9838"/>
</svg>
