<svg
    xmlns="http://www.w3.org/2000/svg"
    viewBox="0 0 313 313"
    id="vector">
    <path
        id="path_2"
        d="M 309.3 104.9 C 309.3 104.9 309.3 104.9 309.3 104.9 C 308.7 104.9 308.2 104.9 307.7 104.9 C 284.8 104.9 262.6 93 250.3 71.8 C 237.8 50.1 238.9 24.2 251.1 4.2 C 252.2 2.4 250.9 0.1 248.9 0.1 C 248.7 0.1 248.5 0.1 248.3 0.2 C 241.7 1.6 235.2 4.1 229 7.6 C 206.8 20.5 194.8 45.2 196.3 69.7 C 199.1 71.5 201.9 73.6 204.5 75.8 C 206.7 77.7 208.8 79.8 210.8 82 C 203.6 59.6 211.9 33.7 231.7 20.2 C 227 39.5 229.7 60.1 240 77.8 C 250.2 95.4 266.8 108.2 285.8 113.7 C 278.5 117.2 270.4 119.1 262.3 119.1 C 258.9 119.1 255.4 118.8 252 118.1 C 250.8 117.9 249.5 117.7 248 117.7 C 243.3 117.7 237.9 119 232.1 120.5 C 231.1 120.7 230.1 121 229.1 121.2 L 229.8 125.6 L 235.8 124.6 C 237.9 124.3 240.1 124.1 242.2 124.1 C 250.5 124.1 258.2 126.7 264.6 131 C 275.1 130.6 285.6 127.8 295.3 122.2 C 301.4 118.7 306.8 114.3 311.3 109.3 C 312.9 107.6 311.6 104.9 309.3 104.9 Z"
        fill="#888a8c"/>
    <path
        id="path_3"
        d="M 157 64.1 C 173 64.1 188.5 69.9 200.6 80.3 C 212.6 90.7 220.5 105 222.9 120.5 L 224.7 132.5 L 236.6 130.6 C 238.4 130.3 240.3 130.2 242.1 130.2 C 260.7 130.2 275.8 145.3 275.8 163.9 C 275.8 182.5 260.7 197.6 242.1 197.6 L 91.9 197.6 C 62.3 197.6 38.3 173.5 38.3 144 C 38.3 114.4 62.4 90.4 91.9 90.4 C 93.5 90.4 95.2 90.5 96.9 90.6 L 103 91.2 L 107 86.6 C 119.7 72.3 137.9 64.1 157 64.1 M 157 52.1 C 133.6 52.1 112.5 62.4 98.1 78.6 C 96.1 78.4 94 78.3 91.9 78.3 C 55.7 78.3 26.3 107.7 26.3 143.9 C 26.3 180.1 55.7 209.5 91.9 209.5 L 242.2 209.5 C 267.4 209.5 287.9 189 287.9 163.8 C 287.9 138.6 267.4 118.1 242.2 118.1 C 239.7 118.1 237.2 118.3 234.8 118.7 C 228.9 81 196.3 52.1 157 52.1 L 157 52.1 Z"
        fill="#b6bbbf"/>
    <path
        id="path_4"
        d="M 188.5 286.1 L 168.7 274.7 L 188.4 263.3 C 191.3 261.6 192.2 258 190.6 255.1 C 188.9 252.2 185.3 251.3 182.4 252.9 L 162.7 264.3 L 162.7 241.5 C 162.7 238.2 160 235.5 156.7 235.5 C 156.7 235.5 156.7 235.5 156.7 235.5 C 153.4 235.5 150.7 238.2 150.7 241.5 L 150.7 264.3 L 131 253 C 128.1 251.3 124.5 252.3 122.8 255.2 C 121.1 258.1 122.1 261.7 125 263.4 L 144.8 274.8 L 125 286.2 C 122.1 287.9 121.2 291.5 122.8 294.4 C 123.9 296.3 125.9 297.4 128 297.4 C 129 297.4 130.1 297.1 131 296.6 L 150.7 285.2 L 150.7 308 C 150.7 311.3 153.4 314 156.7 314 C 156.7 314 156.7 314 156.7 314 C 160 314 162.7 311.3 162.7 308 L 162.7 285.2 L 182.5 296.6 C 183.4 297.1 184.5 297.4 185.5 297.4 C 187.6 297.4 189.6 296.3 190.7 294.4 C 192.4 291.4 191.4 287.7 188.5 286.1 Z"
        fill="#00aebd"/>
</svg>
