<svg
    xmlns="http://www.w3.org/2000/svg"
    viewBox="0 0 313 313"
    id="vector">
    <path
        id="path_4"
        d="M 157.3 53.3 C 154 53.3 151.3 50.6 151.3 47.3 L 151.3 5.9 C 151.3 2.6 154 -0.1 157.3 -0.1 C 160.6 -0.1 163.3 2.6 163.3 5.9 L 163.3 47.3 C 163.3 50.6 160.6 53.3 157.3 53.3 Z"
        fill="#ff9838"/>
    <path
        id="path_5"
        d="M 79.9 85.4 C 78.4 85.4 76.8 84.8 75.7 83.6 L 46.3 54.4 C 44 52.1 44 48.3 46.3 45.9 C 48.6 43.6 52.4 43.6 54.8 45.9 L 84.1 75.2 C 86.4 77.5 86.4 81.3 84.1 83.7 C 82.9 84.8 81.4 85.4 79.9 85.4 Z"
        fill="#ff9838"/>
    <path
        id="path_6"
        d="M 47.8 162.9 L 6.4 162.9 C 3.1 162.9 0.4 160.2 0.4 156.9 C 0.4 153.6 3.1 150.9 6.4 150.9 L 47.8 150.9 C 51.1 150.9 53.8 153.6 53.8 156.9 C 53.8 160.2 51.1 162.9 47.8 162.9 Z"
        fill="#ff9838"/>
    <path
        id="path_7"
        d="M 235.5 84.7 C 234 84.7 232.4 84.1 231.3 82.9 C 229 80.6 229 76.8 231.3 74.4 L 259.9 45.8 C 262.2 43.5 266 43.5 268.4 45.8 C 270.7 48.1 270.7 51.9 268.4 54.3 L 239.7 83 C 238.6 84.1 237 84.7 235.5 84.7 Z"
        fill="#ff9838"/>
    <path
        id="path_8"
        d="M 157.6 66.1 C 107.2 66.1 66.3 107 66.3 157.4 C 66.3 190.2 83.6 218.9 109.5 235 L 141.2 235 C 105.3 227.4 78.3 195.5 78.3 157.4 C 78.3 113.7 113.9 78.1 157.6 78.1 C 201.3 78.1 236.9 113.7 236.9 157.4 C 236.9 195.5 209.9 227.4 174 235 L 205.7 235 C 231.6 218.9 248.9 190.2 248.9 157.4 C 248.9 107 208 66.1 157.6 66.1 Z"
        fill="#ff9838"/>
    <path
        id="path_9"
        d="M 282.7 241.1 L 32.5 241.1 C 29.2 241.1 26.5 238.4 26.5 235.1 C 26.5 231.8 29.2 229.1 32.5 229.1 L 282.6 229.1 C 285.9 229.1 288.6 231.8 288.6 235.1 C 288.6 238.4 286 241.1 282.7 241.1 Z"
        fill="#b6bbbf"/>
    <path
        id="path_10"
        d="M 282.7 163.5 L 137.3 163.5 C 134 163.5 131.3 160.8 131.3 157.5 C 131.3 154.2 134 151.5 137.3 151.5 L 282.7 151.5 C 286 151.5 288.7 154.2 288.7 157.5 C 288.7 160.8 286 163.5 282.7 163.5 Z"
        fill="#b6bbbf"/>
    <path
        id="path_16"
        d="M 177.3 202.2 L 32.5 202.2 C 29.2 202.2 26.5 199.5 26.5 196.2 C 26.5 192.9 29.2 190.2 32.5 190.2 L 177.3 190.2 C 180.6 190.2 183.3 192.9 183.3 196.2 C 183.3 199.5 180.6 202.2 177.3 202.2 Z"
        fill="#b6bbbf"/>
</svg>
