<svg
    xmlns="http://www.w3.org/2000/svg"
    viewBox="0 0 313 313"
    id="vector">
    <path
        id="path"
        d="M 91.7 65.5 C 88.4 65.5 85.7 62.8 85.7 59.5 L 85.7 32.3 C 85.7 29 88.4 26.3 91.7 26.3 C 95 26.3 97.7 29 97.7 32.3 L 97.7 59.5 C 97.7 62.8 95 65.5 91.7 65.5 Z"
        fill="#ff9838"/>
    <path
        id="path_1"
        d="M 50.5 82.6 C 49 82.6 47.4 82 46.3 80.8 L 27 61.6 C 24.7 59.3 24.7 55.5 27 53.1 C 29.3 50.8 33.1 50.8 35.5 53.1 L 54.7 72.3 C 57 74.6 57 78.4 54.7 80.8 C 53.6 82 52 82.6 50.5 82.6 Z"
        fill="#ff9838"/>
    <path
        id="path_2"
        d="M 33.4 123.8 L 6.2 123.8 C 2.9 123.8 0.2 121.1 0.2 117.8 C 0.2 114.5 2.9 111.8 6.2 111.8 L 33.4 111.8 C 36.7 111.8 39.4 114.5 39.4 117.8 C 39.4 121.1 36.7 123.8 33.4 123.8 Z"
        fill="#ff9838"/>
    <path
        id="path_3"
        d="M 61.2 152.1 C 64.6 151.1 68.3 150.6 72 150.6 C 74.1 150.6 76.3 150.8 78.4 151.1 L 84.4 152.1 L 84.6 151 C 69.4 147.7 57.9 134.2 57.9 118 C 57.9 99.4 73 84.2 91.7 84.2 C 102.1 84.2 111.4 88.9 117.6 96.3 C 121 94.1 124.6 92.1 128.4 90.5 C 120.1 79.4 106.8 72.2 91.8 72.2 C 66.5 72.2 46 92.7 46 118 C 45.9 131.5 51.8 143.7 61.2 152.1 Z"
        fill="#ff9838"/>
    <path
        id="path_11"
        d="M 157.2 90.5 C 176.3 90.5 194.5 98.7 207.1 113 L 211.1 117.5 L 217.2 116.9 C 219 116.7 220.6 116.7 222.2 116.7 C 251.8 116.7 275.8 140.8 275.8 170.3 C 275.8 199.8 251.8 224 222.2 224 L 72 224 C 53.4 224 38.3 208.9 38.3 190.3 C 38.3 171.7 53.4 156.6 72 156.6 C 73.8 156.6 75.6 156.8 77.5 157 L 89.4 158.9 L 91.2 146.9 C 93.6 131.3 101.5 117 113.5 106.7 C 125.6 96.3 141.1 90.5 157.2 90.5 M 157.2 78.5 C 117.8 78.5 85.2 107.4 79.4 145.1 C 77 144.7 74.5 144.5 72 144.5 C 46.8 144.5 26.3 165 26.3 190.2 C 26.3 215.4 46.8 235.9 72 235.9 L 222.3 235.9 C 258.5 235.9 287.9 206.5 287.9 170.3 C 287.9 134.1 258.5 104.7 222.3 104.7 C 220.2 104.7 218.2 104.8 216.1 105 C 201.7 88.8 180.6 78.5 157.2 78.5 L 157.2 78.5 Z"
        fill="#b6bbbf"/>
</svg>
