<svg
    xmlns="http://www.w3.org/2000/svg"
    viewBox="0 0 313 313"
    id="vector">
    <path
        id="path"
        d="M 198.1 224 L 72 224 C 53.4 224 38.3 208.9 38.3 190.3 C 38.3 171.7 53.4 156.6 72 156.6 C 73.8 156.6 75.6 156.8 77.5 157 L 89.4 158.9 L 91.2 146.9 C 93.6 131.3 101.5 117 113.5 106.7 C 125.6 96.2 141.1 90.5 157.1 90.5 C 176.2 90.5 194.4 98.7 207 113 L 211 117.5 L 217.1 116.9 C 218.9 116.7 220.5 116.7 222.1 116.7 C 251.7 116.7 275.7 140.8 275.7 170.3 C 275.7 179.7 273.2 188.6 269 196.3 C 270.5 197.5 271.9 198.8 273.2 200.3 L 275.2 202.6 L 278.2 202.3 C 278.6 202.3 279 202.2 279.4 202.2 C 284.7 192.8 287.7 181.9 287.7 170.3 C 287.7 134.1 258.3 104.7 222.1 104.7 C 220 104.7 218 104.8 215.9 105 C 201.5 88.7 180.4 78.5 157 78.5 C 117.6 78.5 85 107.4 79.2 145.1 C 76.8 144.7 74.3 144.5 71.8 144.5 C 46.6 144.5 26.1 165 26.1 190.2 C 26.1 215.4 46.6 235.9 71.8 235.9 L 189.2 235.9 C 190.3 230.8 193.6 226.4 198.1 224 Z"
        fill="#b6bbbf"/>
    <path
        id="path_1"
        d="M 248.4 195.1 C 256.2 195.1 263.6 198.5 268.8 204.3 L 272.8 208.8 L 278.9 208.2 C 279.6 208.1 280.2 208.1 280.9 208.1 C 292.3 208.1 301.6 217.4 301.6 228.8 C 301.6 240.2 292.3 249.5 280.9 249.5 L 205.9 249.5 C 199.9 249.5 195.1 244.6 195.1 238.7 C 195.1 232.7 200 227.9 205.9 227.9 C 206.5 227.9 207.1 227.9 207.7 228 L 219.6 229.9 L 221.4 217.9 C 223.5 205 235.1 195.1 248.4 195.1 M 248.4 183.1 C 228.8 183.1 212.5 197.5 209.6 216.3 C 208.4 216.1 207.2 216 205.9 216 C 193.3 216 183.1 226.2 183.1 238.8 C 183.1 251.4 193.3 261.6 205.9 261.6 L 280.9 261.6 C 299 261.6 313.6 246.9 313.6 228.9 C 313.6 210.9 298.9 196.2 280.9 196.2 C 279.9 196.2 278.8 196.3 277.8 196.3 C 270.6 188.2 260.1 183.1 248.4 183.1 L 248.4 183.1 Z"
        fill="#b6bbbf"/>
</svg>
