<?xml version="1.0" encoding="UTF-8" standalone="no"?>
<svg
   width="24in"
   height="12in"
   viewBox="0 0 609.59999 304.8"
   version="1.1"
   preserveAspectRatio="xMidYMid"
   id="svg1"
   sodipodi:docname="box-mdf-2.svg"
   inkscape:version="1.3.2 (091e20e, 2023-11-25)"
   xmlns:inkscape="http://www.inkscape.org/namespaces/inkscape"
   xmlns:sodipodi="http://sodipodi.sourceforge.net/DTD/sodipodi-0.dtd"
   xmlns="http://www.w3.org/2000/svg"
   xmlns:svg="http://www.w3.org/2000/svg">
  <defs
     id="defs1" />
  <sodipodi:namedview
     id="namedview1"
     pagecolor="#ffffff"
     bordercolor="#999999"
     borderopacity="1"
     inkscape:showpageshadow="2"
     inkscape:pageopacity="0"
     inkscape:pagecheckerboard="0"
     inkscape:deskcolor="#d1d1d1"
     inkscape:document-units="mm"
     inkscape:zoom="0.60182944"
     inkscape:cx="821.66136"
     inkscape:cy="300.74966"
     inkscape:window-width="1920"
     inkscape:window-height="1027"
     inkscape:window-x="0"
     inkscape:window-y="25"
     inkscape:window-maximized="0"
     inkscape:current-layer="svg1"
     showguides="true">
    <sodipodi:guide
       position="476.25,304.8"
       orientation="-1,0"
       id="guide2"
       inkscape:locked="false"
       inkscape:label=""
       inkscape:color="rgb(0,134,229)" />
    <sodipodi:guide
       position="255,304.8"
       orientation="-1,0"
       id="guide4"
       inkscape:locked="false"
       inkscape:label=""
       inkscape:color="rgb(0,134,229)" />
    <sodipodi:guide
       position="84.999999,304.8"
       orientation="-1,0"
       id="guide5"
       inkscape:locked="false"
       inkscape:label=""
       inkscape:color="rgb(0,134,229)" />
  </sodipodi:namedview>
  <path
     id="rect3"
     style="font-variation-settings:normal;display:inline;opacity:1;fill:none;fill-opacity:1;stroke:#000000;stroke-width:0.0254096;stroke-linecap:butt;stroke-linejoin:miter;stroke-miterlimit:4;stroke-dasharray:none;stroke-dashoffset:0;stroke-opacity:1;stop-color:#000000;stop-opacity:1"
     inkscape:label="back-outside-path"
     d="m 10,10 h 320 v 160 h -50 l -3,3 -44,0 -3,-3 H 110 l -1.91284,3 H 62 l -2,-3 H 10 Z"
     sodipodi:nodetypes="ccccccccccccc" />
  <path
     id="rect2-2-7"
     style="display:inline;vector-effect:none;fill:none;stroke:#000000;stroke-width:0.0254064;stop-color:#000000"
     d="m 364.9927,40.012703 v 29.974 l -25.2,2.97e-4 c -2.65,3.1e-5 -4.78,-2.128764 -4.78,-4.773013 V 40.012703 Z"
     sodipodi:nodetypes="ccsscc"
     inkscape:label="medium-4" />
  <path
     id="rect2-2-7-0"
     style="display:inline;vector-effect:none;fill:none;stroke:#000000;stroke-width:0.0254064;stop-color:#000000"
     d="m 370.0127,40.012703 v 29.974 l 25.20129,2.97e-4 c 2.64425,3.1e-5 4.77301,-2.128764 4.77301,-4.773013 V 40.012703 Z"
     sodipodi:nodetypes="ccsscc"
     inkscape:label="medium-3" />
  <path
     id="rect2-2-7-6"
     style="display:inline;vector-effect:none;fill:none;stroke:#000000;stroke-width:0.0254064;stop-color:#000000"
     d="m 434.987,40.012703 v 29.974 L 409.78571,69.987 c -2.64425,3.1e-5 -4.77301,-2.128764 -4.77301,-4.773013 V 40.012703 Z"
     sodipodi:nodetypes="ccsscc"
     inkscape:label="medium-2" />
  <path
     id="rect2-2-7-0-1"
     style="display:inline;vector-effect:none;fill:none;stroke:#000000;stroke-width:0.0254064;stop-color:#000000"
     d="m 440.0127,40.012703 v 29.974 l 25.20129,2.97e-4 c 2.64425,3.1e-5 4.77301,-2.128764 4.77301,-4.773013 V 40.012703 Z"
     sodipodi:nodetypes="ccsscc"
     inkscape:label="medium-1" />
  <path
     id="path1"
     style="font-variation-settings:normal;opacity:1;vector-effect:none;fill:none;fill-opacity:1;stroke:#000000;stroke-width:0.0254064;stroke-linecap:butt;stroke-linejoin:miter;stroke-miterlimit:4;stroke-dasharray:none;stroke-dashoffset:0;stroke-opacity:1;-inkscape-stroke:none;stop-color:#000000;stop-opacity:1"
     d="m 353.0027,54.999852 a 3,3 0 0 1 -3,3 3,3 0 0 1 -3,-3 3,3 0 0 1 3,-3 3,3 0 0 1 3,3 z"
     inkscape:label="medium-4-hole" />
  <path
     id="path1-4"
     style="font-variation-settings:normal;vector-effect:none;fill:none;fill-opacity:1;stroke:#000000;stroke-width:0.0254064;stroke-linecap:butt;stroke-linejoin:miter;stroke-miterlimit:4;stroke-dasharray:none;stroke-dashoffset:0;stroke-opacity:1;-inkscape-stroke:none;stop-color:#000000"
     d="m 387.99985,54.999852 a 3,3 0 0 1 -3,3 3,3 0 0 1 -3,-3 3,3 0 0 1 3,-3 3,3 0 0 1 3,3 z"
     inkscape:label="medium-3-hole" />
  <path
     id="path1-0"
     style="font-variation-settings:normal;vector-effect:none;fill:none;fill-opacity:1;stroke:#000000;stroke-width:0.0254064;stroke-linecap:butt;stroke-linejoin:miter;stroke-miterlimit:4;stroke-dasharray:none;stroke-dashoffset:0;stroke-opacity:1;-inkscape-stroke:none;stop-color:#000000"
     d="m 422.99985,54.999852 a 3,3 0 0 1 -3,3 3,3 0 0 1 -3,-3 3,3 0 0 1 3,-3 3,3 0 0 1 3,3 z"
     inkscape:label="medium-2-hole" />
  <path
     id="path1-3"
     style="font-variation-settings:normal;vector-effect:none;fill:none;fill-opacity:1;stroke:#000000;stroke-width:0.0254064;stroke-linecap:butt;stroke-linejoin:miter;stroke-miterlimit:4;stroke-dasharray:none;stroke-dashoffset:0;stroke-opacity:1;-inkscape-stroke:none;stop-color:#000000"
     d="m 457.99985,54.999852 a 3,3 0 0 1 -3,3 3,3 0 0 1 -3,-3 3,3 0 0 1 3,-3 3,3 0 0 1 3,3 z"
     inkscape:label="medium-1-hole" />
  <path
     id="rect2-5"
     style="display:inline;vector-effect:none;fill:none;stroke:#000000;stroke-width:0.0254064;stop-color:#000000"
     d="m 425.0127,10.012703 c 0,1.834869 0,17.490063 0,19.974594 h 15.20129 c 2.64425,0 4.77301,-2.128764 4.77301,-4.773013 V 10.013 Z"
     sodipodi:nodetypes="ccsscc"
     inkscape:label="small-4" />
  <path
     id="rect2"
     style="display:inline;opacity:1;vector-effect:none;fill:none;stroke:#000000;stroke-width:0.0254064;stop-color:#000000;stop-opacity:1"
     d="m 419.987,10.012703 c 0,1.834869 0,17.490063 0,19.974594 h -15.20129 c -2.64425,0 -4.77301,-2.128764 -4.77301,-4.773013 V 10.013 Z"
     sodipodi:nodetypes="ccsscc"
     inkscape:label="small-3" />
  <path
     id="rect2-5-9"
     style="display:inline;vector-effect:none;fill:none;stroke:#000000;stroke-width:0.0254064;stop-color:#000000"
     d="m 375.0127,10.012703 c 0,1.834869 0,17.490063 0,19.974594 h 15.20129 c 2.64425,0 4.77301,-2.128764 4.77301,-4.773013 V 10.013 Z"
     sodipodi:nodetypes="ccsscc"
     inkscape:label="small-2" />
  <path
     id="rect2-2"
     style="display:inline;vector-effect:none;fill:none;stroke:#000000;stroke-width:0.0254064;stop-color:#000000"
     d="m 369.987,10.012703 c 0,1.834869 0,17.490063 0,19.974594 h -15.20129 c -2.64425,0 -4.77301,-2.128764 -4.77301,-4.773013 V 10.013 Z"
     sodipodi:nodetypes="ccsscc"
     inkscape:label="small-1" />
  <path
     id="path1-11"
     style="font-variation-settings:normal;vector-effect:none;fill:none;fill-opacity:1;stroke:#000000;stroke-width:0.0254064;stroke-linecap:butt;stroke-linejoin:miter;stroke-miterlimit:4;stroke-dasharray:none;stroke-dashoffset:0;stroke-opacity:1;-inkscape-stroke:none;stop-color:#000000"
     d="m 437.99985,20 a 3,3 0 0 1 -3,3 3,3 0 0 1 -3,-3 3,3 0 0 1 3,-3 3,3 0 0 1 3,3 z"
     inkscape:label="small-4-hole" />
  <path
     id="path1-9"
     style="font-variation-settings:normal;vector-effect:none;fill:none;fill-opacity:1;stroke:#000000;stroke-width:0.0254064;stroke-linecap:butt;stroke-linejoin:miter;stroke-miterlimit:4;stroke-dasharray:none;stroke-dashoffset:0;stroke-opacity:1;-inkscape-stroke:none;stop-color:#000000"
     d="m 412.99985,20 a 3,3 0 0 1 -3,3 3,3 0 0 1 -3,-3 3,3 0 0 1 3,-3 3,3 0 0 1 3,3 z"
     inkscape:label="small-3-hole" />
  <path
     id="path1-1"
     style="font-variation-settings:normal;vector-effect:none;fill:none;fill-opacity:1;stroke:#000000;stroke-width:0.0254064;stroke-linecap:butt;stroke-linejoin:miter;stroke-miterlimit:4;stroke-dasharray:none;stroke-dashoffset:0;stroke-opacity:1;-inkscape-stroke:none;stop-color:#000000"
     d="m 387.99985,20 a 3,3 0 0 1 -3,3 3,3 0 0 1 -3,-3 3,3 0 0 1 3,-3 3,3 0 0 1 3,3 z"
     inkscape:label="small-2-hole" />
  <path
     id="path1-7"
     style="font-variation-settings:normal;vector-effect:none;fill:none;fill-opacity:1;stroke:#000000;stroke-width:0.0254064;stroke-linecap:butt;stroke-linejoin:miter;stroke-miterlimit:4;stroke-dasharray:none;stroke-dashoffset:0;stroke-opacity:1;-inkscape-stroke:none;stop-color:#000000"
     d="m 362.99985,20 a 3,3 0 0 1 -3,3 3,3 0 0 1 -3,-3 3,3 0 0 1 3,-3 3,3 0 0 1 3,3 z"
     inkscape:label="small-1-hole" />
  <path
     id="path2"
     style="font-variation-settings:normal;opacity:1;fill:none;fill-opacity:1;stroke:#000000;stroke-width:0.0254;stroke-linecap:butt;stroke-linejoin:miter;stroke-miterlimit:4;stroke-dasharray:none;stroke-dashoffset:0;stroke-opacity:1;stop-color:#000000;stop-opacity:1"
     d="m 85.00605,40.0127 a 2.244283,2.244283 0 0 0 -2.24431,2.24431 2.244283,2.244283 0 0 0 5.2e-4,0.0072 h -0.006 v 2.73937 a 3.9936576,3.9936576 0 0 0 -1.74356,3.29179 3.9936576,3.9936576 0 0 0 3.99356,3.99355 3.9936576,3.9936576 0 0 0 3.99355,-3.99355 3.9936576,3.9936576 0 0 0 -1.74356,-3.29903 v -2.73213 h -0.006 a 2.244283,2.244283 0 0 0 5.2e-4,-0.0072 2.244283,2.244283 0 0 0 -2.24431,-2.24431 z"
     inkscape:label="keyhole-1" />
  <path
     id="path2-0"
     style="font-variation-settings:normal;fill:none;fill-opacity:1;stroke:#000000;stroke-width:0.0254;stroke-linecap:butt;stroke-linejoin:miter;stroke-miterlimit:4;stroke-dasharray:none;stroke-dashoffset:0;stroke-opacity:1;stop-color:#000000"
     d="m 254.99948,40.0127 a 2.244283,2.244283 0 0 0 -2.24431,2.24431 2.244283,2.244283 0 0 0 5.2e-4,0.0072 h -0.006 v 2.73937 a 3.9936576,3.9936576 0 0 0 -1.74356,3.29179 3.9936576,3.9936576 0 0 0 3.99356,3.99355 3.9936576,3.9936576 0 0 0 3.99355,-3.99355 3.9936576,3.9936576 0 0 0 -1.74356,-3.29903 v -2.73213 h -0.006 a 2.244283,2.244283 0 0 0 5.2e-4,-0.0072 2.244283,2.244283 0 0 0 -2.24431,-2.24431 z"
     inkscape:label="keyhole-1" />
</svg>
