<?xml version="1.0" encoding="UTF-8" standalone="no"?>
<svg
   width="19in"
   height="12in"
   viewBox="0 0 482.59999 304.8"
   version="1.1"
   preserveAspectRatio="xMidYMid"
   id="svg1"
   sodipodi:docname="box-walnut-plywood.svg"
   inkscape:version="1.3.2 (091e20e, 2023-11-25)"
   xml:space="preserve"
   xmlns:inkscape="http://www.inkscape.org/namespaces/inkscape"
   xmlns:sodipodi="http://sodipodi.sourceforge.net/DTD/sodipodi-0.dtd"
   xmlns="http://www.w3.org/2000/svg"
   xmlns:svg="http://www.w3.org/2000/svg"><sodipodi:namedview
     id="namedview1"
     pagecolor="#ffffff"
     bordercolor="#999999"
     borderopacity="1"
     inkscape:showpageshadow="2"
     inkscape:pageopacity="0"
     inkscape:pagecheckerboard="0"
     inkscape:deskcolor="#d1d1d1"
     inkscape:document-units="mm"
     inkscape:zoom="1.0837473"
     inkscape:cx="1226.762"
     inkscape:cy="525.03014"
     inkscape:window-width="1728"
     inkscape:window-height="981"
     inkscape:window-x="1079"
     inkscape:window-y="1118"
     inkscape:window-maximized="1"
     inkscape:current-layer="svg1"
     showguides="false" /><defs
     id="defs1" /><g
     id="g7"
     inkscape:label="bottom"
     transform="rotate(-90,346.50001,420.95)"
     style="font-variation-settings:normal;display:inline;opacity:1;vector-effect:none;fill:none;fill-opacity:1;stroke:#000000;stroke-width:0.0254;stroke-linecap:butt;stroke-linejoin:miter;stroke-miterlimit:4;stroke-dasharray:none;stroke-dashoffset:0;stroke-opacity:1;-inkscape-stroke:none;stop-color:#000000;stop-opacity:1"><rect
       style="font-variation-settings:normal;vector-effect:none;fill:none;fill-opacity:1;stroke:#000000;stroke-width:0.0250266;stroke-linecap:butt;stroke-linejoin:miter;stroke-miterlimit:4;stroke-dasharray:none;stroke-dashoffset:0;stroke-opacity:1;-inkscape-stroke:none;stop-color:#000000;stop-opacity:1"
       id="rect3"
       width="49.974972"
       height="3.0749733"
       x="130.46251"
       y="-582.4375"
       transform="rotate(90)"
       inkscape:label="slot-left" /><rect
       style="font-variation-settings:normal;vector-effect:none;fill:none;fill-opacity:1;stroke:#000000;stroke-width:0.0250267;stroke-linecap:butt;stroke-linejoin:miter;stroke-miterlimit:4;stroke-dasharray:none;stroke-dashoffset:0;stroke-opacity:1;-inkscape-stroke:none;stop-color:#000000;stop-opacity:1"
       id="rect3-5"
       width="49.974972"
       height="3.0749733"
       x="309.16251"
       y="-582.4375"
       transform="rotate(90)"
       inkscape:label="slot-right" /><rect
       style="font-variation-settings:normal;opacity:1;vector-effect:none;fill:none;fill-opacity:1;stroke:#000000;stroke-width:0.0254314;stroke-linecap:butt;stroke-linejoin:miter;stroke-miterlimit:4;stroke-dasharray:none;stroke-dashoffset:0;stroke-opacity:1;-inkscape-stroke:none;stop-color:#000000;stop-opacity:1"
       id="rect5"
       width="328.67456"
       height="54.974567"
       x="80.462708"
       y="-587.43732"
       inkscape:label="bottom-outside"
       transform="rotate(90)" /></g><g
     id="g6"
     inkscape:label="top"
     transform="rotate(-90,345.82002,484.63001)"
     style="font-variation-settings:normal;display:inline;opacity:1;vector-effect:none;fill:none;fill-opacity:1;stroke:#000000;stroke-width:0.0254;stroke-linecap:butt;stroke-linejoin:miter;stroke-miterlimit:4;stroke-dasharray:none;stroke-dashoffset:0;stroke-opacity:1;-inkscape-stroke:none;stop-color:#000000;stop-opacity:1"><rect
       style="font-variation-settings:normal;display:inline;opacity:1;vector-effect:none;fill:none;fill-opacity:1;stroke:#000000;stroke-width:0.0254314;stroke-linecap:butt;stroke-linejoin:miter;stroke-miterlimit:4;stroke-dasharray:none;stroke-dashoffset:0;stroke-opacity:1;-inkscape-stroke:none;stop-color:#000000;stop-opacity:1"
       id="rect4"
       width="328.67456"
       height="54.974567"
       x="144.82271"
       y="-590.43732"
       inkscape:label="top-outside"
       transform="rotate(90)" /></g><g
     id="g4"
     inkscape:label="right"
     transform="translate(5.51,6.05)"
     style="display:inline"><text
       xml:space="preserve"
       style="font-size:3.175px;text-align:center;text-anchor:middle;fill:#000000;fill-opacity:1;stroke:#000000;stroke-width:0.0508;stroke-dasharray:none;stroke-opacity:1"
       x="371.99792"
       y="145.29633"
       id="text9"
       inkscape:label="5VDC-text-editable"><tspan
         sodipodi:role="line"
         id="tspan9"
         style="font-style:normal;font-variant:normal;font-weight:normal;font-stretch:normal;font-family:'Helvetica Neue';-inkscape-font-specification:'Helvetica Neue';text-align:center;text-anchor:middle;stroke-width:0.0508"
         x="371.99792"
         y="145.29633">5V DC</tspan><tspan
         sodipodi:role="line"
         style="font-style:normal;font-variant:normal;font-weight:normal;font-stretch:normal;font-family:'Helvetica Neue';-inkscape-font-specification:'Helvetica Neue';text-align:center;text-anchor:middle;stroke-width:0.0508"
         x="371.99792"
         y="149.3598"
         id="tspan10">1A</tspan></text><path
       style="fill:#000000;fill-opacity:1;stroke:#000000;stroke-width:0.0368254;stroke-dasharray:none;stroke-opacity:1"
       d="m 367.29174,140.44683 c -0.3386,-0.0736 -0.72561,-0.31686 -0.93433,-0.58739 -0.21527,-0.27904 -0.36918,-0.71011 -0.36918,-1.03407 0,-0.38213 0.20267,-0.87404 0.47339,-1.149 0.92551,-0.93998 2.48571,-0.5143 2.81143,0.76707 0.0235,0.0925 0.0428,0.19084 0.0428,0.21861 0,0.0466 0.0385,0.0505 0.50278,0.0505 h 0.50278 l 0.046,-0.21187 c 0.095,-0.43791 0.33751,-0.79869 0.70461,-1.04838 0.30141,-0.20501 0.54018,-0.27649 0.9236,-0.27649 0.37788,0 0.61731,0.0708 0.91616,0.2706 0.32224,0.21553 0.63081,0.61332 0.56127,0.72356 -0.0594,0.0941 -0.15809,0.0594 -0.25578,-0.0899 -0.32384,-0.49491 -0.89529,-0.75864 -1.44301,-0.66596 -0.9446,0.15983 -1.47028,1.16091 -1.06292,2.02418 0.48155,1.02051 1.87655,1.09416 2.50593,0.1323 0.0666,-0.10184 0.10866,-0.13879 0.15786,-0.13879 0.19967,0 0.11044,0.23944 -0.20943,0.56197 -0.92733,0.93503 -2.51769,0.46267 -2.79554,-0.83032 l -0.0484,-0.22528 h -0.50294 c -0.46446,0 -0.50294,0.004 -0.50294,0.0505 0,0.0278 -0.0192,0.12614 -0.0428,0.21861 -0.22574,0.88802 -1.09524,1.43199 -1.98131,1.23952 z m 0.64646,-0.22367 c 0.49556,-0.10503 0.89668,-0.45492 1.07147,-0.93463 0.0863,-0.2369 0.0863,-0.68941 0,-0.92631 -0.23503,-0.64504 -0.88064,-1.04371 -1.5395,-0.95065 -0.72178,0.10194 -1.23235,0.68768 -1.23235,1.4138 0,0.67858 0.45944,1.25411 1.115,1.39674 0.22565,0.0491 0.35754,0.0494 0.58538,7.3e-4 z m -1.10448,-1.34093 c -0.0217,-0.0407 -0.0217,-0.073 0,-0.11371 0.0296,-0.0552 0.0534,-0.0566 0.82302,-0.0494 0.71931,0.007 0.79546,0.012 0.82371,0.0568 0.0227,0.036 0.0227,0.0628 0,0.0987 -0.0283,0.0448 -0.1044,0.0501 -0.82371,0.0568 -0.76968,0.007 -0.79347,0.006 -0.82302,-0.0494 z m 9.13912,1.56529 c -0.46734,-0.10556 -0.90678,-0.44693 -1.10941,-0.86184 -0.0975,-0.19962 -0.18816,-0.48728 -0.18816,-0.59698 0,-0.0476 -0.0607,-0.0505 -1.06999,-0.0505 h -1.07 l -0.0193,0.0635 c -0.0903,0.29723 -0.48044,0.45317 -0.76745,0.30675 -0.1872,-0.0955 -0.2717,-0.23044 -0.28288,-0.45172 -0.011,-0.21746 0.039,-0.33427 0.19808,-0.46305 0.26914,-0.21783 0.68783,-0.11347 0.82906,0.20665 l 0.0495,0.11224 h 1.06647 c 1.00593,0 1.06646,-0.003 1.06646,-0.0505 0,-0.1097 0.0907,-0.39737 0.18816,-0.59699 0.13992,-0.28649 0.42808,-0.57498 0.7158,-0.71661 0.92887,-0.45726 1.99189,-0.0194 2.33062,0.95993 0.15518,0.44865 0.086,1.00091 -0.17674,1.41169 -0.36885,0.5766 -1.0966,0.87735 -1.76027,0.72745 z m 0.59236,-0.21302 c 0.23381,-0.037 0.53921,-0.18186 0.71727,-0.34013 0.51582,-0.4585 0.62371,-1.2645 0.24723,-1.84698 -0.50044,-0.77429 -1.59084,-0.873 -2.2253,-0.20144 -0.16203,0.17151 -0.26342,0.33916 -0.33643,0.55631 -0.075,0.22313 -0.0683,0.66016 0.0137,0.88627 0.17032,0.46979 0.5772,0.82879 1.05777,0.93331 0.21664,0.0471 0.29619,0.049 0.52574,0.0127 z m -0.31969,-0.58169 c -0.0104,-0.0104 -0.0188,-0.17497 -0.0188,-0.36584 v -0.34703 l -0.34254,-0.008 c -0.29013,-0.007 -0.34728,-0.0154 -0.37361,-0.0573 -0.0226,-0.036 -0.0226,-0.0628 0,-0.0987 0.0263,-0.0418 0.0834,-0.0506 0.37278,-0.0573 l 0.34169,-0.008 0.008,-0.35879 c 0.008,-0.35046 0.009,-0.359 0.0729,-0.36801 0.12774,-0.0181 0.14654,0.0323 0.14654,0.39348 v 0.33504 h 0.33749 c 0.30864,0 0.34009,0.005 0.3677,0.0564 0.0215,0.0401 0.0215,0.0728 0,0.11283 -0.0276,0.0516 -0.0591,0.0564 -0.3677,0.0564 h -0.33749 v 0.33285 c 0,0.22128 -0.0114,0.3442 -0.0339,0.3667 -0.0365,0.0365 -0.14235,0.0457 -0.173,0.0151 z"
       id="path9"
       inkscape:label="center-positive-icon" /><path
       id="path1"
       style="font-variation-settings:normal;opacity:1;vector-effect:none;fill:none;fill-opacity:1;stroke:#000000;stroke-width:0.0254;stroke-linecap:butt;stroke-linejoin:miter;stroke-miterlimit:4;stroke-dasharray:none;stroke-dashoffset:0;stroke-opacity:1;-inkscape-stroke:none;stop-color:#000000;stop-opacity:1"
       d="m 370.25341,120.9627 a 5.7372179,5.7372184 0 0 0 -4.00079,5.46014 5.7372179,5.7372184 0 0 0 4.00905,5.46271 h 3.45716 a 5.7372179,5.7372184 0 0 0 4.00854,-5.46271 5.7372179,5.7372184 0 0 0 -3.9796,-5.46014 z"
       inkscape:label="dc-jack-hole" /><rect
       style="display:inline;font-variation-settings:normal;opacity:1;vector-effect:none;fill:none;fill-opacity:1;stroke:#000000;stroke-width:0.0254364;stroke-linecap:butt;stroke-linejoin:miter;stroke-miterlimit:4;stroke-dasharray:none;stroke-dashoffset:0;stroke-opacity:1;-inkscape-stroke:none;stop-color:#000000;stop-opacity:1"
       id="rect7"
       width="54.974564"
       height="161.97456"
       x="344.50272"
       y="7.962718"
       inkscape:label="right-outside" /></g><g
     id="g15"
     inkscape:label="left"
     style="font-variation-settings:normal;display:inline;opacity:1;vector-effect:none;fill:none;fill-opacity:1;stroke:#000000;stroke-width:0.0254;stroke-linecap:butt;stroke-linejoin:miter;stroke-miterlimit:4;stroke-dasharray:none;stroke-dashoffset:0;stroke-opacity:1;-inkscape-stroke:none;stop-color:#000000;stop-opacity:1"
     transform="matrix(0.99942606,0,0,0.9994588,12.605613,36.698459)"><path
       id="path10"
       d="m 432.68001,34.08827 a 2.5387475,2.5387475 0 0 1 -2.53875,2.53875 2.5387475,2.5387475 0 0 1 -2.53874,-2.53875 2.5387475,2.5387475 0 0 1 2.53874,-2.53875 2.5387475,2.5387475 0 0 1 2.53875,2.53875 z"
       style="font-variation-settings:normal;vector-effect:none;fill:none;fill-opacity:1;stroke:#000000;stroke-width:0.0254;stroke-linecap:butt;stroke-linejoin:miter;stroke-miterlimit:4;stroke-dasharray:none;stroke-dashoffset:0;stroke-opacity:1;-inkscape-stroke:none;stop-color:#000000;stop-opacity:1"
       inkscape:label="hole-for-light-sensor" /><rect
       style="font-variation-settings:normal;display:inline;opacity:1;vector-effect:none;fill:none;fill-opacity:1;stroke:#000000;stroke-width:0.0254506;stroke-linecap:butt;stroke-linejoin:miter;stroke-miterlimit:4;stroke-dasharray:none;stroke-dashoffset:0;stroke-opacity:1;-inkscape-stroke:none;stop-color:#000000;stop-opacity:1"
       id="rect6"
       width="55.006134"
       height="162.06227"
       x="402.63818"
       y="-22.698025"
       inkscape:label="left-outside" /></g><g
     id="g2"
     inkscape:label="front"
     style="font-variation-settings:normal;display:inline;opacity:1;vector-effect:none;fill:none;fill-opacity:1;stroke:#000000;stroke-width:0.0254;stroke-linecap:butt;stroke-linejoin:miter;stroke-miterlimit:4;stroke-dasharray:none;stroke-dashoffset:0;stroke-opacity:1;-inkscape-stroke:none;stop-color:#000000;stop-opacity:1"
     transform="translate(6.000001,-165.35999)"
     sodipodi:insensitive="true"><rect
       style="font-variation-settings:normal;fill:none;fill-opacity:1;stroke:#000000;stroke-width:0.0254519;stroke-linecap:butt;stroke-linejoin:miter;stroke-miterlimit:4;stroke-dasharray:none;stroke-dashoffset:0;stroke-opacity:1;stop-color:#000000;stop-opacity:1"
       id="rect1"
       width="328.67456"
       height="168.67455"
       x="0.01272495"
       y="171.37271"
       inkscape:label="front-path-outside" /><rect
       style="font-variation-settings:normal;display:inline;vector-effect:none;fill:none;fill-opacity:1;stroke:#000000;stroke-width:0.0254554;stroke-linecap:butt;stroke-linejoin:miter;stroke-miterlimit:4;stroke-dasharray:none;stroke-dashoffset:0;stroke-opacity:1;-inkscape-stroke:none;stop-color:#000000;stop-opacity:1"
       id="rect2"
       width="318.67456"
       height="158.67455"
       x="5.0127268"
       y="176.37273"
       inkscape:label="front-path-inside" /></g></svg>
