<?xml version="1.0" encoding="UTF-8" standalone="no"?>
<svg
   width="24in"
   height="12in"
   viewBox="0 0 609.59999 304.8"
   version="1.1"
   preserveAspectRatio="xMidYMid"
   id="svg1"
   sodipodi:docname="box-walnut-plywood-4-paths-and-finger-joints-kerf.svg"
   inkscape:version="1.3.2 (091e20e, 2023-11-25)"
   xml:space="preserve"
   xmlns:inkscape="http://www.inkscape.org/namespaces/inkscape"
   xmlns:sodipodi="http://sodipodi.sourceforge.net/DTD/sodipodi-0.dtd"
   xmlns="http://www.w3.org/2000/svg"
   xmlns:svg="http://www.w3.org/2000/svg"><sodipodi:namedview
     id="namedview1"
     pagecolor="#ffffff"
     bordercolor="#999999"
     borderopacity="1"
     inkscape:showpageshadow="2"
     inkscape:pageopacity="0"
     inkscape:pagecheckerboard="0"
     inkscape:deskcolor="#d1d1d1"
     inkscape:document-units="mm"
     inkscape:zoom="0.76975293"
     inkscape:cx="1000.321"
     inkscape:cy="930.1686"
     inkscape:window-width="1920"
     inkscape:window-height="1027"
     inkscape:window-x="0"
     inkscape:window-y="25"
     inkscape:window-maximized="1"
     inkscape:current-layer="svg1"
     showguides="true"><sodipodi:guide
       position="476.25,304.8"
       orientation="-1,0"
       id="guide1"
       inkscape:locked="false"
       inkscape:label=""
       inkscape:color="rgb(0,134,229)" /></sodipodi:namedview><defs
     id="defs1"><inkscape:path-effect
       effect="offset"
       id="path-effect4"
       is_visible="true"
       lpeversion="1.2"
       linejoin_type="miter"
       unit="mm"
       offset="-0.1"
       miter_limit="4"
       attempt_force_join="false"
       update_on_knot_move="true" /><inkscape:path-effect
       effect="offset"
       id="path-effect3"
       is_visible="true"
       lpeversion="1.2"
       linejoin_type="miter"
       unit="mm"
       offset="0.1"
       miter_limit="4"
       attempt_force_join="false"
       update_on_knot_move="true" /><inkscape:path-effect
       effect="offset"
       id="path-effect2"
       is_visible="true"
       lpeversion="1.2"
       linejoin_type="miter"
       unit="mm"
       offset="-0.1"
       miter_limit="4"
       attempt_force_join="false"
       update_on_knot_move="true" /><inkscape:path-effect
       effect="offset"
       id="path-effect1"
       is_visible="true"
       lpeversion="1.2"
       linejoin_type="miter"
       unit="mm"
       offset="-0.1"
       miter_limit="4"
       attempt_force_join="false"
       update_on_knot_move="true" /></defs><g
     id="g7"
     inkscape:label="bottom"
     transform="rotate(-90,346.50001,420.95)"
     style="font-variation-settings:normal;display:inline;opacity:1;vector-effect:none;fill:none;fill-opacity:1;stroke:#000000;stroke-width:0.0254;stroke-linecap:butt;stroke-linejoin:miter;stroke-miterlimit:4;stroke-dasharray:none;stroke-dashoffset:0;stroke-opacity:1;-inkscape-stroke:none;stop-color:#000000;stop-opacity:1"><path
       id="rect3"
       style="font-variation-settings:normal;opacity:1;vector-effect:none;fill:none;fill-opacity:1;stroke:#000000;stroke-width:0.0254364;stroke-linecap:butt;stroke-linejoin:miter;stroke-miterlimit:4;stroke-dasharray:none;stroke-dashoffset:0;stroke-opacity:1;-inkscape-stroke:none;stop-color:#000000;stop-opacity:1"
       inkscape:label="slot-left"
       transform="rotate(90)"
       d="m 130.46251,-582.4375 h 49.97497 v 3.07497 h -49.97497 z" /><path
       id="rect3-5"
       style="font-variation-settings:normal;opacity:1;vector-effect:none;fill:none;fill-opacity:1;stroke:#000000;stroke-width:0.0254364;stroke-linecap:butt;stroke-linejoin:miter;stroke-miterlimit:4;stroke-dasharray:none;stroke-dashoffset:0;stroke-opacity:1;-inkscape-stroke:none;stop-color:#000000;stop-opacity:1"
       inkscape:label="slot-right"
       transform="rotate(90)"
       d="m 309.16251,-582.4375 h 49.97497 v 3.07497 h -49.97497 z" /><path
       id="rect4-8"
       style="font-variation-settings:normal;display:inline;opacity:1;vector-effect:none;fill:none;fill-opacity:1;stroke:#000000;stroke-width:0.0254364;stroke-linecap:butt;stroke-linejoin:miter;stroke-miterlimit:4;stroke-dasharray:none;stroke-dashoffset:0;stroke-opacity:1;-inkscape-stroke:none;stop-color:#000000;stop-opacity:1"
       inkscape:label="bottom-outside"
       d="m 587.43729,405.78671 h -11.155 v 3.35 h -10.755 v -3.35 h -11.155 v 3.35 h -10.755 v -3.35 h -11.155 l 10e-4,-321.974002 h 11.1548 v -3.35 h 10.7548 v 3.35 h 11.1548 v -3.35 h 10.7548 v 3.35 h 11.1548 z"
       sodipodi:nodetypes="ccccccccccccccccccccc" /></g><g
     id="g6"
     inkscape:label="top"
     transform="rotate(-90,345.82002,484.63001)"
     style="font-variation-settings:normal;display:inline;opacity:1;vector-effect:none;fill:none;fill-opacity:1;stroke:#000000;stroke-width:0.0254;stroke-linecap:butt;stroke-linejoin:miter;stroke-miterlimit:4;stroke-dasharray:none;stroke-dashoffset:0;stroke-opacity:1;-inkscape-stroke:none;stop-color:#000000;stop-opacity:1"><path
       id="rect4"
       style="font-variation-settings:normal;display:inline;opacity:1;vector-effect:none;fill:none;fill-opacity:1;stroke:#000000;stroke-width:0.0254364;stroke-linecap:butt;stroke-linejoin:miter;stroke-miterlimit:4;stroke-dasharray:none;stroke-dashoffset:0;stroke-opacity:1;-inkscape-stroke:none;stop-color:#000000;stop-opacity:1"
       inkscape:label="top-outside"
       transform="rotate(90)"
       d="m 470.147,-590.437 v 11.155 h 3.35 v 10.755 h -3.35 v 11.155 h 3.35 v 10.755 h -3.35 v 11.155 l -321.974,-10e-4 v -11.1548 h -3.35 v -10.7548 h 3.35 v -11.1548 h -3.35 v -10.7548 h 3.35 v -11.1548 z"
       sodipodi:nodetypes="ccccccccccccccccccccc" /></g><g
     id="g4"
     inkscape:label="right"
     transform="translate(0.5097182,6.3999982)"
     style="display:inline"><path
       style="font-size:3.175px;font-family:'Helvetica Neue';-inkscape-font-specification:'Helvetica Neue';font-variation-settings:normal;text-align:center;text-anchor:middle;display:inline;opacity:1;vector-effect:none;fill:#000000;fill-opacity:1;stroke:#000000;stroke-width:0.0508;stroke-linecap:butt;stroke-linejoin:miter;stroke-miterlimit:4;stroke-dasharray:none;stroke-dashoffset:0;stroke-opacity:1;-inkscape-stroke:none;stop-color:#000000;stop-opacity:1"
       d="m 371.21687,149.35981 v -2.25108 h -0.20637 q -0.0222,0.127 -0.0825,0.20955 -0.0603,0.0826 -0.14923,0.13018 -0.0857,0.0476 -0.19367,0.0667 -0.10795,0.0159 -0.22225,0.0159 v 0.2159 h 0.5842 v 1.6129 z m 1.27318,-0.93663 0.38417,-1.05727 h 0.006 l 0.37783,1.05727 z m 0.22542,-1.33032 -0.88265,2.26695 h 0.30798 l 0.254,-0.68263 h 0.95885 l 0.24765,0.68263 h 0.33337 l -0.88582,-2.26695 z"
       id="path3"
       inkscape:label="1A" /><path
       style="font-size:3.175px;font-family:'Helvetica Neue';-inkscape-font-specification:'Helvetica Neue';text-align:center;text-anchor:middle;display:inline;fill:#000000;fill-opacity:1;stroke:#000000;stroke-width:0.0508"
       d="m 368.93246,143.32148 v -0.23813 h -1.11125 l -0.20955,1.1684 0.23178,0.0127 q 0.0794,-0.0953 0.18097,-0.1524 0.10478,-0.0603 0.23813,-0.0603 0.1143,0 0.20637,0.0381 0.0953,0.0381 0.16193,0.10795 0.0667,0.0667 0.1016,0.16192 0.0381,0.0921 0.0381,0.2032 0,0.13335 -0.0381,0.23495 -0.0381,0.0984 -0.10478,0.1651 -0.0635,0.0667 -0.1524,0.1016 -0.0857,0.0318 -0.18097,0.0318 -0.1016,0 -0.18733,-0.0286 -0.0826,-0.0318 -0.14605,-0.0857 -0.0603,-0.0572 -0.0984,-0.13017 -0.0349,-0.0762 -0.0413,-0.16193 h -0.26987 q 0.003,0.1524 0.0603,0.27305 0.0572,0.12065 0.15558,0.2032 0.0984,0.0794 0.22542,0.12383 0.13018,0.0413 0.27623,0.0413 0.19685,0 0.3429,-0.0603 0.14922,-0.0635 0.24765,-0.16828 0.0984,-0.10477 0.14605,-0.23812 0.0508,-0.13653 0.0508,-0.2794 0,-0.19368 -0.0571,-0.33655 -0.0572,-0.14605 -0.15558,-0.2413 -0.0984,-0.0984 -0.23177,-0.14605 -0.13335,-0.0476 -0.28258,-0.0476 -0.1143,0 -0.23177,0.0413 -0.1143,0.0381 -0.18733,0.12065 l -0.006,-0.006 0.12065,-0.6477 z m 1.41288,1.97485 0.80645,-2.26695 h -0.31433 l -0.65405,1.96532 h -0.006 l -0.6477,-1.96532 h -0.32385 l 0.79693,2.26695 z m 2.23202,-0.254 v -1.75895 h 0.508 q 0.20955,0 0.35243,0.0603 0.14287,0.0571 0.23177,0.17145 0.0921,0.11113 0.13018,0.27305 0.0413,0.15875 0.0413,0.36195 0,0.20955 -0.0444,0.35878 -0.0413,0.14605 -0.10795,0.24447 -0.0667,0.0984 -0.1524,0.15558 -0.0825,0.0571 -0.16827,0.0889 -0.0857,0.0286 -0.16193,0.0381 -0.0762,0.006 -0.127,0.006 z m -0.30162,-2.01295 v 2.26695 h 0.77787 q 0.28258,0 0.48895,-0.0794 0.20638,-0.0794 0.33973,-0.2286 0.13335,-0.1524 0.19685,-0.37147 0.0635,-0.22225 0.0635,-0.508 0,-0.5461 -0.28258,-0.8128 -0.28257,-0.2667 -0.80645,-0.2667 z m 3.82905,0.68262 h 0.30162 q -0.0254,-0.18097 -0.10795,-0.3175 -0.0825,-0.1397 -0.20637,-0.23177 -0.12383,-0.0921 -0.28258,-0.1397 -0.15875,-0.0476 -0.33655,-0.0476 -0.26035,0 -0.46355,0.0952 -0.20002,0.0921 -0.33655,0.254 -0.13335,0.16193 -0.2032,0.381 -0.0698,0.2159 -0.0698,0.46355 0,0.24765 0.0635,0.46355 0.0667,0.2159 0.19685,0.37465 0.13018,0.15875 0.32703,0.25083 0.19685,0.0889 0.46037,0.0889 0.43498,0 0.6858,-0.23813 0.25083,-0.23812 0.29528,-0.66675 h -0.30163 q -0.01,0.1397 -0.0571,0.26035 -0.0476,0.12065 -0.13335,0.20955 -0.0826,0.0857 -0.20002,0.13653 -0.1143,0.0476 -0.26353,0.0476 -0.2032,0 -0.34925,-0.0762 -0.14605,-0.0762 -0.2413,-0.2032 -0.0921,-0.13017 -0.13652,-0.30162 -0.0444,-0.17463 -0.0444,-0.3683 0,-0.1778 0.0444,-0.3429 0.0445,-0.1651 0.13652,-0.2921 0.0953,-0.13018 0.23813,-0.20638 0.14605,-0.0762 0.34925,-0.0762 0.23812,0 0.40957,0.12065 0.17463,0.12065 0.22543,0.36195 z"
       id="path2"
       inkscape:label="5V DC" /><path
       style="fill:#000000;fill-opacity:1;stroke:#000000;stroke-width:0.0508;stroke-dasharray:none;stroke-opacity:1"
       d="m 367.29174,140.44683 c -0.3386,-0.0736 -0.72561,-0.31686 -0.93433,-0.58739 -0.21527,-0.27904 -0.36918,-0.71011 -0.36918,-1.03407 0,-0.38213 0.20267,-0.87404 0.47339,-1.149 0.92551,-0.93998 2.48571,-0.5143 2.81143,0.76707 0.0235,0.0925 0.0428,0.19084 0.0428,0.21861 0,0.0466 0.0385,0.0505 0.50278,0.0505 h 0.50278 l 0.046,-0.21187 c 0.095,-0.43791 0.33751,-0.79869 0.70461,-1.04838 0.30141,-0.20501 0.54018,-0.27649 0.9236,-0.27649 0.37788,0 0.61731,0.0708 0.91616,0.2706 0.32224,0.21553 0.63081,0.61332 0.56127,0.72356 -0.0594,0.0941 -0.15809,0.0594 -0.25578,-0.0899 -0.32384,-0.49491 -0.89529,-0.75864 -1.44301,-0.66596 -0.9446,0.15983 -1.47028,1.16091 -1.06292,2.02418 0.48155,1.02051 1.87655,1.09416 2.50593,0.1323 0.0666,-0.10184 0.10866,-0.13879 0.15786,-0.13879 0.19967,0 0.11044,0.23944 -0.20943,0.56197 -0.92733,0.93503 -2.51769,0.46267 -2.79554,-0.83032 l -0.0484,-0.22528 h -0.50294 c -0.46446,0 -0.50294,0.004 -0.50294,0.0505 0,0.0278 -0.0192,0.12614 -0.0428,0.21861 -0.22574,0.88802 -1.09524,1.43199 -1.98131,1.23952 z m 0.64646,-0.22367 c 0.49556,-0.10503 0.89668,-0.45492 1.07147,-0.93463 0.0863,-0.2369 0.0863,-0.68941 0,-0.92631 -0.23503,-0.64504 -0.88064,-1.04371 -1.5395,-0.95065 -0.72178,0.10194 -1.23235,0.68768 -1.23235,1.4138 0,0.67858 0.45944,1.25411 1.115,1.39674 0.22565,0.0491 0.35754,0.0494 0.58538,7.3e-4 z m -1.10448,-1.34093 c -0.0217,-0.0407 -0.0217,-0.073 0,-0.11371 0.0296,-0.0552 0.0534,-0.0566 0.82302,-0.0494 0.71931,0.007 0.79546,0.012 0.82371,0.0568 0.0227,0.036 0.0227,0.0628 0,0.0987 -0.0283,0.0448 -0.1044,0.0501 -0.82371,0.0568 -0.76968,0.007 -0.79347,0.006 -0.82302,-0.0494 z m 9.13912,1.56529 c -0.46734,-0.10556 -0.90678,-0.44693 -1.10941,-0.86184 -0.0975,-0.19962 -0.18816,-0.48728 -0.18816,-0.59698 0,-0.0476 -0.0607,-0.0505 -1.06999,-0.0505 h -1.07 l -0.0193,0.0635 c -0.0903,0.29723 -0.48044,0.45317 -0.76745,0.30675 -0.1872,-0.0955 -0.2717,-0.23044 -0.28288,-0.45172 -0.011,-0.21746 0.039,-0.33427 0.19808,-0.46305 0.26914,-0.21783 0.68783,-0.11347 0.82906,0.20665 l 0.0495,0.11224 h 1.06647 c 1.00593,0 1.06646,-0.003 1.06646,-0.0505 0,-0.1097 0.0907,-0.39737 0.18816,-0.59699 0.13992,-0.28649 0.42808,-0.57498 0.7158,-0.71661 0.92887,-0.45726 1.99189,-0.0194 2.33062,0.95993 0.15518,0.44865 0.086,1.00091 -0.17674,1.41169 -0.36885,0.5766 -1.0966,0.87735 -1.76027,0.72745 z m 0.59236,-0.21302 c 0.23381,-0.037 0.53921,-0.18186 0.71727,-0.34013 0.51582,-0.4585 0.62371,-1.2645 0.24723,-1.84698 -0.50044,-0.77429 -1.59084,-0.873 -2.2253,-0.20144 -0.16203,0.17151 -0.26342,0.33916 -0.33643,0.55631 -0.075,0.22313 -0.0683,0.66016 0.0137,0.88627 0.17032,0.46979 0.5772,0.82879 1.05777,0.93331 0.21664,0.0471 0.29619,0.049 0.52574,0.0127 z m -0.31969,-0.58169 c -0.0104,-0.0104 -0.0188,-0.17497 -0.0188,-0.36584 v -0.34703 l -0.34254,-0.008 c -0.29013,-0.007 -0.34728,-0.0154 -0.37361,-0.0573 -0.0226,-0.036 -0.0226,-0.0628 0,-0.0987 0.0263,-0.0418 0.0834,-0.0506 0.37278,-0.0573 l 0.34169,-0.008 0.008,-0.35879 c 0.008,-0.35046 0.009,-0.359 0.0729,-0.36801 0.12774,-0.0181 0.14654,0.0323 0.14654,0.39348 v 0.33504 h 0.33749 c 0.30864,0 0.34009,0.005 0.3677,0.0564 0.0215,0.0401 0.0215,0.0728 0,0.11283 -0.0276,0.0516 -0.0591,0.0564 -0.3677,0.0564 h -0.33749 v 0.33285 c 0,0.22128 -0.0114,0.3442 -0.0339,0.3667 -0.0365,0.0365 -0.14235,0.0457 -0.173,0.0151 z"
       id="path9"
       inkscape:label="center-positive-icon" /><path
       id="path1"
       style="font-variation-settings:normal;opacity:1;vector-effect:none;fill:none;fill-opacity:1;stroke:#000000;stroke-width:0.0254;stroke-linecap:butt;stroke-linejoin:miter;stroke-miterlimit:4;stroke-dasharray:none;stroke-dashoffset:0;stroke-opacity:1;-inkscape-stroke:none;stop-color:#000000;stop-opacity:1"
       d="m 370.27148,121.0625 h 3.45704 c 2.32318,0.75324 3.89791,2.91634 3.89843,5.35938 -0.003,2.45175 -1.59052,4.61972 -3.92578,5.36328 h -3.42187 c -2.33547,-0.74338 -3.9243,-2.91171 -3.92774,-5.36328 0.003,-2.44873 1.58849,-4.61343 3.91992,-5.35938 z"
       inkscape:label="dc-jack-hole"
       inkscape:path-effect="#path-effect2"
       inkscape:original-d="m 370.25341,120.9627 a 5.7372179,5.7372184 0 0 0 -4.00079,5.46014 5.7372179,5.7372184 0 0 0 4.00905,5.46271 h 3.45716 a 5.7372179,5.7372184 0 0 0 4.00854,-5.46271 5.7372179,5.7372184 0 0 0 -3.9796,-5.46014 z" /><path
       id="rect7"
       style="display:inline;opacity:1;vector-effect:none;fill:none;stroke:#000000;stroke-width:0.0254364;stop-color:#000000;stop-opacity:1"
       inkscape:label="right-outside"
       d="m 344.503,4.61272 h 11.155 v 3.35 h 10.755 v -3.35 h 11.155 v 3.35 h 10.755 v -3.35 h 11.155 L 399.477,173.287 h -11.1548 v -3.35 h -10.7548 v 3.35 h -11.1548 v -3.35 h -10.7548 v 3.35 H 344.503 Z"
       sodipodi:nodetypes="ccccccccccccccccccccc" /></g><g
     id="g15"
     inkscape:label="left"
     style="font-variation-settings:normal;display:inline;opacity:1;vector-effect:none;fill:none;fill-opacity:1;stroke:#000000;stroke-width:0.0254;stroke-linecap:butt;stroke-linejoin:miter;stroke-miterlimit:4;stroke-dasharray:none;stroke-dashoffset:0;stroke-opacity:1;-inkscape-stroke:none;stop-color:#000000;stop-opacity:1"
     transform="matrix(0.99942606,0,0,0.9994588,7.6056082,36.698459)"><path
       id="path10"
       d="m 430.14062,31.648437 c 1.34633,-1e-6 2.43946,1.093124 2.43946,2.439454 0,1.34633 -1.09313,2.439454 -2.43946,2.439453 -1.34632,-4e-6 -2.43945,-1.093128 -2.43945,-2.439453 0,-1.346326 1.09313,-2.43945 2.43945,-2.439454 z"
       style="font-variation-settings:normal;opacity:1;vector-effect:none;fill:none;fill-opacity:1;stroke:#000000;stroke-width:0.0254142;stroke-linecap:butt;stroke-linejoin:miter;stroke-miterlimit:4;stroke-dasharray:none;stroke-dashoffset:0;stroke-opacity:1;-inkscape-stroke:none;stop-color:#000000;stop-opacity:1"
       inkscape:label="hole-for-light-sensor"
       inkscape:path-effect="#path-effect1"
       inkscape:original-d="m 432.68001,34.08827 a 2.5387475,2.5387475 0 0 1 -2.53875,2.53875 2.5387475,2.5387475 0 0 1 -2.53874,-2.53875 2.5387475,2.5387475 0 0 1 2.53874,-2.53875 2.5387475,2.5387475 0 0 1 2.53875,2.53875 z" /><path
       id="rect7-3"
       style="display:inline;vector-effect:none;fill:none;stroke:#000000;stroke-width:0.0254506;stop-color:#000000"
       inkscape:label="left-outside"
       d="m 402.6382,-25.699649 h 11.1614 v 3.351814 h 10.76118 v -3.351814 h 11.1614 v 3.351814 h 10.76118 v -3.351814 h 11.16141 l -10e-4,168.765619 h -11.16121 v -3.35181 h -10.76098 v 3.35181 h -11.1612 v -3.35181 H 413.7994 v 3.35181 h -11.1612 z"
       sodipodi:nodetypes="ccccccccccccccccccccc" /></g><g
     id="g2"
     inkscape:label="front"
     style="font-variation-settings:normal;display:inline;opacity:1;vector-effect:none;fill:none;fill-opacity:1;stroke:#000000;stroke-width:0.0254;stroke-linecap:butt;stroke-linejoin:miter;stroke-miterlimit:4;stroke-dasharray:none;stroke-dashoffset:0;stroke-opacity:1;-inkscape-stroke:none;stop-color:#000000;stop-opacity:1"
     transform="translate(6.000001,-165.35999)"
     inkscape:path-effect="#path-effect3"><path
       id="rect1"
       style="font-variation-settings:normal;opacity:1;vector-effect:none;fill:none;fill-opacity:1;stroke:#000000;stroke-width:0.0254;stroke-linecap:butt;stroke-linejoin:miter;stroke-miterlimit:4;stroke-dasharray:none;stroke-dashoffset:0;stroke-opacity:1;-inkscape-stroke:none;stop-color:#000000;stop-opacity:1"
       inkscape:label="front-path-outside"
       d="M -0.0859375,171.27344 V 340.14648 H 328.78711 V 171.27344 Z"
       inkscape:original-d="M 0.01272495,171.37271 H 328.68729 V 340.04726 H 0.01272495 Z" /><path
       id="rect2"
       style="display:inline;fill:none;stroke:#000000;stroke-width:0.0254;stroke-dasharray:none;stroke-opacity:1;stop-color:#000000;stop-opacity:1"
       inkscape:label="front-path-inside"
       d="M 5.1132812,176.47266 H 323.58789 V 334.94727 H 5.1132812 Z"
       inkscape:original-d="M 5.0127268,176.37273 H 323.68729 V 335.04727 H 5.0127268 Z"
       inkscape:path-effect="#path-effect4" /></g></svg>
